<?xml version="1.0" encoding="utf-8" standalone="no"?>
<!DOCTYPE svg PUBLIC "-//W3C//DTD SVG 1.1//EN"
  "http://www.w3.org/Graphics/SVG/1.1/DTD/svg11.dtd">
<svg xmlns:xlink="http://www.w3.org/1999/xlink" width="857.887031pt" height="358.278791pt" viewBox="0 0 857.887031 358.278791" xmlns="http://www.w3.org/2000/svg" version="1.1">
 <metadata>
  <rdf:RDF xmlns:dc="http://purl.org/dc/elements/1.1/" xmlns:cc="http://creativecommons.org/ns#" xmlns:rdf="http://www.w3.org/1999/02/22-rdf-syntax-ns#">
   <cc:Work>
    <dc:type rdf:resource="http://purl.org/dc/dcmitype/StillImage"/>
    <dc:date>2026-02-22T12:54:54.601476</dc:date>
    <dc:format>image/svg+xml</dc:format>
    <dc:creator>
     <cc:Agent>
      <dc:title>Matplotlib v3.10.8, https://matplotlib.org/</dc:title>
     </cc:Agent>
    </dc:creator>
   </cc:Work>
  </rdf:RDF>
 </metadata>
 <defs>
  <style type="text/css">*{stroke-linejoin: round; stroke-linecap: butt}</style>
 </defs>
 <g id="figure_1">
  <g id="patch_1">
   <path d="M 0 358.278791 
L 857.887031 358.278791 
L 857.887031 0 
L 0 0 
z
" style="fill: #ffffff"/>
  </g>
  <g id="axes_1">
   <g id="patch_2">
    <path d="M 55.557031 310.198791 
L 847.447031 310.198791 
L 847.447031 29.077969 
L 55.557031 29.077969 
z
" style="fill: #ffffff"/>
   </g>
   <g id="patch_3">
    <path d="M 63.220483 217.131377 
L 73.438418 217.131377 
L 73.438418 244.815325 
L 63.220483 244.815325 
z
" clip-path="url(#p9bcd30f553)" style="fill: #f0c8a8"/>
   </g>
   <g id="patch_4">
    <path d="M 75.992902 217.131377 
L 86.210838 217.131377 
L 86.210838 201.499405 
L 75.992902 201.499405 
z
" clip-path="url(#p9bcd30f553)" style="fill: #a8c8e8"/>
   </g>
   <g id="patch_5">
    <path d="M 88.765322 217.131377 
L 98.983257 217.131377 
L 98.983257 198.231984 
L 88.765322 198.231984 
z
" clip-path="url(#p9bcd30f553)" style="fill: #a8c8e8"/>
   </g>
   <g id="patch_6">
    <path d="M 101.537741 217.131377 
L 111.755676 217.131377 
L 111.755676 218.468314 
L 101.537741 218.468314 
z
" clip-path="url(#p9bcd30f553)" style="fill: #f0c8a8"/>
   </g>
   <g id="patch_7">
    <path d="M 114.31016 217.131377 
L 124.528096 217.131377 
L 124.528096 227.774298 
L 114.31016 227.774298 
z
" clip-path="url(#p9bcd30f553)" style="fill: #f0c8a8"/>
   </g>
   <g id="patch_8">
    <path d="M 127.08258 217.131377 
L 137.300515 217.131377 
L 137.300515 153.746058 
L 127.08258 153.746058 
z
" clip-path="url(#p9bcd30f553)" style="fill: #a8c8e8"/>
   </g>
   <g id="patch_9">
    <path d="M 139.854999 217.131377 
L 150.072934 217.131377 
L 150.072934 221.021462 
L 139.854999 221.021462 
z
" clip-path="url(#p9bcd30f553)" style="fill: #f0c8a8"/>
   </g>
   <g id="patch_10">
    <path d="M 152.627418 217.131377 
L 162.845354 217.131377 
L 162.845354 228.857754 
L 152.627418 228.857754 
z
" clip-path="url(#p9bcd30f553)" style="fill: #f0c8a8"/>
   </g>
   <g id="patch_11">
    <path d="M 165.399838 217.131377 
L 175.617773 217.131377 
L 175.617773 273.67598 
L 165.399838 273.67598 
z
" clip-path="url(#p9bcd30f553)" style="fill: #f0c8a8"/>
   </g>
   <g id="patch_12">
    <path d="M 178.172257 217.131377 
L 188.390193 217.131377 
L 188.390193 221.533627 
L 178.172257 221.533627 
z
" clip-path="url(#p9bcd30f553)" style="fill: #f0c8a8"/>
   </g>
   <g id="patch_13">
    <path d="M 190.944676 217.131377 
L 201.162612 217.131377 
L 201.162612 202.194443 
L 190.944676 202.194443 
z
" clip-path="url(#p9bcd30f553)" style="fill: #a8c8e8"/>
   </g>
   <g id="patch_14">
    <path d="M 203.717096 217.131377 
L 213.935031 217.131377 
L 213.935031 267.093288 
L 203.717096 267.093288 
z
" clip-path="url(#p9bcd30f553)" style="fill: #f0c8a8"/>
   </g>
   <g id="patch_15">
    <path d="M 216.489515 217.131377 
L 226.707451 217.131377 
L 226.707451 183.949852 
L 216.489515 183.949852 
z
" clip-path="url(#p9bcd30f553)" style="fill: #a8c8e8"/>
   </g>
   <g id="patch_16">
    <path d="M 229.261934 217.131377 
L 239.47987 217.131377 
L 239.47987 254.831717 
L 229.261934 254.831717 
z
" clip-path="url(#p9bcd30f553)" style="fill: #f0c8a8"/>
   </g>
   <g id="patch_17">
    <path d="M 242.034354 217.131377 
L 252.252289 217.131377 
L 252.252289 251.423269 
L 242.034354 251.423269 
z
" clip-path="url(#p9bcd30f553)" style="fill: #f0c8a8"/>
   </g>
   <g id="patch_18">
    <path d="M 254.806773 217.131377 
L 265.024709 217.131377 
L 265.024709 259.791098 
L 254.806773 259.791098 
z
" clip-path="url(#p9bcd30f553)" style="fill: #f0c8a8"/>
   </g>
   <g id="patch_19">
    <path d="M 267.579193 217.131377 
L 277.797128 217.131377 
L 277.797128 197.991018 
L 267.579193 197.991018 
z
" clip-path="url(#p9bcd30f553)" style="fill: #a8c8e8"/>
   </g>
   <g id="patch_20">
    <path d="M 280.351612 217.131377 
L 290.569547 217.131377 
L 290.569547 231.619968 
L 280.351612 231.619968 
z
" clip-path="url(#p9bcd30f553)" style="fill: #f0c8a8"/>
   </g>
   <g id="patch_21">
    <path d="M 293.124031 217.131377 
L 303.341967 217.131377 
L 303.341967 231.833901 
L 293.124031 231.833901 
z
" clip-path="url(#p9bcd30f553)" style="fill: #f0c8a8"/>
   </g>
   <g id="patch_22">
    <path d="M 305.896451 217.131377 
L 316.114386 217.131377 
L 316.114386 41.856188 
L 305.896451 41.856188 
z
" clip-path="url(#p9bcd30f553)" style="fill: #1f6aa5"/>
   </g>
   <g id="patch_23">
    <path d="M 318.66887 217.131377 
L 328.886805 217.131377 
L 328.886805 221.261171 
L 318.66887 221.261171 
z
" clip-path="url(#p9bcd30f553)" style="fill: #f0c8a8"/>
   </g>
   <g id="patch_24">
    <path d="M 331.441289 217.131377 
L 341.659225 217.131377 
L 341.659225 256.145082 
L 331.441289 256.145082 
z
" clip-path="url(#p9bcd30f553)" style="fill: #f0c8a8"/>
   </g>
   <g id="patch_25">
    <path d="M 344.213709 217.131377 
L 354.431644 217.131377 
L 354.431644 190.879565 
L 344.213709 190.879565 
z
" clip-path="url(#p9bcd30f553)" style="fill: #a8c8e8"/>
   </g>
   <g id="patch_26">
    <path d="M 356.986128 217.131377 
L 367.204064 217.131377 
L 367.204064 227.349164 
L 356.986128 227.349164 
z
" clip-path="url(#p9bcd30f553)" style="fill: #f0c8a8"/>
   </g>
   <g id="patch_27">
    <path d="M 369.758547 217.131377 
L 379.976483 217.131377 
L 379.976483 205.374628 
L 369.758547 205.374628 
z
" clip-path="url(#p9bcd30f553)" style="fill: #a8c8e8"/>
   </g>
   <g id="patch_28">
    <path d="M 382.530967 217.131377 
L 392.748902 217.131377 
L 392.748902 246.151614 
L 382.530967 246.151614 
z
" clip-path="url(#p9bcd30f553)" style="fill: #f0c8a8"/>
   </g>
   <g id="patch_29">
    <path d="M 395.303386 217.131377 
L 405.521322 217.131377 
L 405.521322 243.073458 
L 395.303386 243.073458 
z
" clip-path="url(#p9bcd30f553)" style="fill: #f0c8a8"/>
   </g>
   <g id="patch_30">
    <path d="M 408.075805 217.131377 
L 418.293741 217.131377 
L 418.293741 211.666351 
L 408.075805 211.666351 
z
" clip-path="url(#p9bcd30f553)" style="fill: #a8c8e8"/>
   </g>
   <g id="patch_31">
    <path d="M 420.848225 217.131377 
L 431.06616 217.131377 
L 431.06616 151.241677 
L 420.848225 151.241677 
z
" clip-path="url(#p9bcd30f553)" style="fill: #a8c8e8"/>
   </g>
   <g id="patch_32">
    <path d="M 433.620644 217.131377 
L 443.83858 217.131377 
L 443.83858 297.420572 
L 433.620644 297.420572 
z
" clip-path="url(#p9bcd30f553)" style="fill: #e07b39"/>
   </g>
   <g id="patch_33">
    <path d="M 446.393064 217.131377 
L 456.610999 217.131377 
L 456.610999 198.846103 
L 446.393064 198.846103 
z
" clip-path="url(#p9bcd30f553)" style="fill: #a8c8e8"/>
   </g>
   <g id="patch_34">
    <path d="M 459.165483 217.131377 
L 469.383418 217.131377 
L 469.383418 242.439834 
L 459.165483 242.439834 
z
" clip-path="url(#p9bcd30f553)" style="fill: #f0c8a8"/>
   </g>
   <g id="patch_35">
    <path d="M 471.937902 217.131377 
L 482.155838 217.131377 
L 482.155838 249.056594 
L 471.937902 249.056594 
z
" clip-path="url(#p9bcd30f553)" style="fill: #f0c8a8"/>
   </g>
   <g id="patch_36">
    <path d="M 484.710322 217.131377 
L 494.928257 217.131377 
L 494.928257 103.191389 
L 484.710322 103.191389 
z
" clip-path="url(#p9bcd30f553)" style="fill: #1f6aa5"/>
   </g>
   <g id="patch_37">
    <path d="M 497.482741 217.131377 
L 507.700676 217.131377 
L 507.700676 210.460563 
L 497.482741 210.460563 
z
" clip-path="url(#p9bcd30f553)" style="fill: #a8c8e8"/>
   </g>
   <g id="patch_38">
    <path d="M 510.25516 217.131377 
L 520.473096 217.131377 
L 520.473096 236.024978 
L 510.25516 236.024978 
z
" clip-path="url(#p9bcd30f553)" style="fill: #f0c8a8"/>
   </g>
   <g id="patch_39">
    <path d="M 523.02758 217.131377 
L 533.245515 217.131377 
L 533.245515 167.161531 
L 523.02758 167.161531 
z
" clip-path="url(#p9bcd30f553)" style="fill: #a8c8e8"/>
   </g>
   <g id="patch_40">
    <path d="M 535.799999 217.131377 
L 546.017934 217.131377 
L 546.017934 283.784707 
L 535.799999 283.784707 
z
" clip-path="url(#p9bcd30f553)" style="fill: #f0c8a8"/>
   </g>
   <g id="patch_41">
    <path d="M 548.572418 217.131377 
L 558.790354 217.131377 
L 558.790354 205.602256 
L 548.572418 205.602256 
z
" clip-path="url(#p9bcd30f553)" style="fill: #a8c8e8"/>
   </g>
   <g id="patch_42">
    <path d="M 561.344838 217.131377 
L 571.562773 217.131377 
L 571.562773 233.777236 
L 561.344838 233.777236 
z
" clip-path="url(#p9bcd30f553)" style="fill: #f0c8a8"/>
   </g>
   <g id="patch_43">
    <path d="M 574.117257 217.131377 
L 584.335193 217.131377 
L 584.335193 230.474692 
L 574.117257 230.474692 
z
" clip-path="url(#p9bcd30f553)" style="fill: #f0c8a8"/>
   </g>
   <g id="patch_44">
    <path d="M 586.889676 217.131377 
L 597.107612 217.131377 
L 597.107612 228.627672 
L 586.889676 228.627672 
z
" clip-path="url(#p9bcd30f553)" style="fill: #f0c8a8"/>
   </g>
   <g id="patch_45">
    <path d="M 599.662096 217.131377 
L 609.880031 217.131377 
L 609.880031 156.029788 
L 599.662096 156.029788 
z
" clip-path="url(#p9bcd30f553)" style="fill: #a8c8e8"/>
   </g>
   <g id="patch_46">
    <path d="M 612.434515 217.131377 
L 622.652451 217.131377 
L 622.652451 204.484133 
L 612.434515 204.484133 
z
" clip-path="url(#p9bcd30f553)" style="fill: #a8c8e8"/>
   </g>
   <g id="patch_47">
    <path d="M 625.206934 217.131377 
L 635.42487 217.131377 
L 635.42487 220.008127 
L 625.206934 220.008127 
z
" clip-path="url(#p9bcd30f553)" style="fill: #f0c8a8"/>
   </g>
   <g id="patch_48">
    <path d="M 637.979354 217.131377 
L 648.197289 217.131377 
L 648.197289 214.135482 
L 637.979354 214.135482 
z
" clip-path="url(#p9bcd30f553)" style="fill: #a8c8e8"/>
   </g>
   <g id="patch_49">
    <path d="M 650.751773 217.131377 
L 660.969709 217.131377 
L 660.969709 242.633115 
L 650.751773 242.633115 
z
" clip-path="url(#p9bcd30f553)" style="fill: #f0c8a8"/>
   </g>
   <g id="patch_50">
    <path d="M 663.524193 217.131377 
L 673.742128 217.131377 
L 673.742128 173.538288 
L 663.524193 173.538288 
z
" clip-path="url(#p9bcd30f553)" style="fill: #a8c8e8"/>
   </g>
   <g id="patch_51">
    <path d="M 676.296612 217.131377 
L 686.514547 217.131377 
L 686.514547 207.410648 
L 676.296612 207.410648 
z
" clip-path="url(#p9bcd30f553)" style="fill: #a8c8e8"/>
   </g>
   <g id="patch_52">
    <path d="M 689.069031 217.131377 
L 699.286967 217.131377 
L 699.286967 252.489924 
L 689.069031 252.489924 
z
" clip-path="url(#p9bcd30f553)" style="fill: #f0c8a8"/>
   </g>
   <g id="patch_53">
    <path d="M 701.841451 217.131377 
L 712.059386 217.131377 
L 712.059386 224.98485 
L 701.841451 224.98485 
z
" clip-path="url(#p9bcd30f553)" style="fill: #f0c8a8"/>
   </g>
   <g id="patch_54">
    <path d="M 714.61387 217.131377 
L 724.831805 217.131377 
L 724.831805 244.039711 
L 714.61387 244.039711 
z
" clip-path="url(#p9bcd30f553)" style="fill: #f0c8a8"/>
   </g>
   <g id="patch_55">
    <path d="M 727.386289 217.131377 
L 737.604225 217.131377 
L 737.604225 200.389572 
L 727.386289 200.389572 
z
" clip-path="url(#p9bcd30f553)" style="fill: #a8c8e8"/>
   </g>
   <g id="patch_56">
    <path d="M 740.158709 217.131377 
L 750.376644 217.131377 
L 750.376644 199.319871 
L 740.158709 199.319871 
z
" clip-path="url(#p9bcd30f553)" style="fill: #a8c8e8"/>
   </g>
   <g id="patch_57">
    <path d="M 752.931128 217.131377 
L 763.149064 217.131377 
L 763.149064 229.564451 
L 752.931128 229.564451 
z
" clip-path="url(#p9bcd30f553)" style="fill: #f0c8a8"/>
   </g>
   <g id="patch_58">
    <path d="M 765.703547 217.131377 
L 775.921483 217.131377 
L 775.921483 211.004321 
L 765.703547 211.004321 
z
" clip-path="url(#p9bcd30f553)" style="fill: #a8c8e8"/>
   </g>
   <g id="patch_59">
    <path d="M 778.475967 217.131377 
L 788.693902 217.131377 
L 788.693902 208.003366 
L 778.475967 208.003366 
z
" clip-path="url(#p9bcd30f553)" style="fill: #a8c8e8"/>
   </g>
   <g id="patch_60">
    <path d="M 791.248386 217.131377 
L 801.466322 217.131377 
L 801.466322 223.239873 
L 791.248386 223.239873 
z
" clip-path="url(#p9bcd30f553)" style="fill: #f0c8a8"/>
   </g>
   <g id="patch_61">
    <path d="M 804.020805 217.131377 
L 814.238741 217.131377 
L 814.238741 254.01749 
L 804.020805 254.01749 
z
" clip-path="url(#p9bcd30f553)" style="fill: #f0c8a8"/>
   </g>
   <g id="patch_62">
    <path d="M 816.793225 217.131377 
L 827.01116 217.131377 
L 827.01116 221.324801 
L 816.793225 221.324801 
z
" clip-path="url(#p9bcd30f553)" style="fill: #f0c8a8"/>
   </g>
   <g id="patch_63">
    <path d="M 829.565644 217.131377 
L 839.78358 217.131377 
L 839.78358 275.2501 
L 829.565644 275.2501 
z
" clip-path="url(#p9bcd30f553)" style="fill: #f0c8a8"/>
   </g>
   <g id="patch_64">
    <path d="M 451.502031 310.198791 
L 834.674612 310.198791 
L 834.674612 29.077969 
L 451.502031 29.077969 
z
" clip-path="url(#p9bcd30f553)" style="fill: #1f6aa5; opacity: 0.06; stroke: #1f6aa5; stroke-linejoin: miter"/>
   </g>
   <g id="matplotlib.axis_1">
    <g id="xtick_1">
     <g id="line2d_1">
      <path d="M 68.329451 310.198791 
L 68.329451 29.077969 
" clip-path="url(#p9bcd30f553)" style="fill: none; stroke-dasharray: 2.96,1.28; stroke-dashoffset: 0; stroke: #b0b0b0; stroke-opacity: 0.3; stroke-width: 0.8"/>
     </g>
     <g id="line2d_2">
      <defs>
       <path id="mb5a77fa18b" d="M 0 0 
L 0 3.5 
" style="stroke: #000000; stroke-width: 0.8"/>
      </defs>
      <g>
       <use xlink:href="#mb5a77fa18b" x="68.329451" y="310.198791" style="stroke: #000000; stroke-width: 0.8"/>
      </g>
     </g>
     <g id="text_1">
      <!-- −30 -->
      <g transform="translate(56.721872 325.557073) scale(0.11 -0.11)">
       <defs>
        <path id="DejaVuSans-2212" d="M 678 2272 
L 4684 2272 
L 4684 1741 
L 678 1741 
L 678 2272 
z
" transform="scale(0.015625)"/>
        <path id="DejaVuSans-33" d="M 2597 2516 
Q 3050 2419 3304 2112 
Q 3559 1806 3559 1356 
Q 3559 666 3084 287 
Q 2609 -91 1734 -91 
Q 1441 -91 1130 -33 
Q 819 25 488 141 
L 488 750 
Q 750 597 1062 519 
Q 1375 441 1716 441 
Q 2309 441 2620 675 
Q 2931 909 2931 1356 
Q 2931 1769 2642 2001 
Q 2353 2234 1838 2234 
L 1294 2234 
L 1294 2753 
L 1863 2753 
Q 2328 2753 2575 2939 
Q 2822 3125 2822 3475 
Q 2822 3834 2567 4026 
Q 2313 4219 1838 4219 
Q 1578 4219 1281 4162 
Q 984 4106 628 3988 
L 628 4550 
Q 988 4650 1302 4700 
Q 1616 4750 1894 4750 
Q 2613 4750 3031 4423 
Q 3450 4097 3450 3541 
Q 3450 3153 3228 2886 
Q 3006 2619 2597 2516 
z
" transform="scale(0.015625)"/>
        <path id="DejaVuSans-30" d="M 2034 4250 
Q 1547 4250 1301 3770 
Q 1056 3291 1056 2328 
Q 1056 1369 1301 889 
Q 1547 409 2034 409 
Q 2525 409 2770 889 
Q 3016 1369 3016 2328 
Q 3016 3291 2770 3770 
Q 2525 4250 2034 4250 
z
M 2034 4750 
Q 2819 4750 3233 4129 
Q 3647 3509 3647 2328 
Q 3647 1150 3233 529 
Q 2819 -91 2034 -91 
Q 1250 -91 836 529 
Q 422 1150 422 2328 
Q 422 3509 836 4129 
Q 1250 4750 2034 4750 
z
" transform="scale(0.015625)"/>
       </defs>
       <use xlink:href="#DejaVuSans-2212"/>
       <use xlink:href="#DejaVuSans-33" transform="translate(83.789062 0)"/>
       <use xlink:href="#DejaVuSans-30" transform="translate(147.412109 0)"/>
      </g>
     </g>
    </g>
    <g id="xtick_2">
     <g id="line2d_3">
      <path d="M 196.053644 310.198791 
L 196.053644 29.077969 
" clip-path="url(#p9bcd30f553)" style="fill: none; stroke-dasharray: 2.96,1.28; stroke-dashoffset: 0; stroke: #b0b0b0; stroke-opacity: 0.3; stroke-width: 0.8"/>
     </g>
     <g id="line2d_4">
      <g>
       <use xlink:href="#mb5a77fa18b" x="196.053644" y="310.198791" style="stroke: #000000; stroke-width: 0.8"/>
      </g>
     </g>
     <g id="text_2">
      <!-- −20 -->
      <g transform="translate(184.446066 325.557073) scale(0.11 -0.11)">
       <defs>
        <path id="DejaVuSans-32" d="M 1228 531 
L 3431 531 
L 3431 0 
L 469 0 
L 469 531 
Q 828 903 1448 1529 
Q 2069 2156 2228 2338 
Q 2531 2678 2651 2914 
Q 2772 3150 2772 3378 
Q 2772 3750 2511 3984 
Q 2250 4219 1831 4219 
Q 1534 4219 1204 4116 
Q 875 4013 500 3803 
L 500 4441 
Q 881 4594 1212 4672 
Q 1544 4750 1819 4750 
Q 2544 4750 2975 4387 
Q 3406 4025 3406 3419 
Q 3406 3131 3298 2873 
Q 3191 2616 2906 2266 
Q 2828 2175 2409 1742 
Q 1991 1309 1228 531 
z
" transform="scale(0.015625)"/>
       </defs>
       <use xlink:href="#DejaVuSans-2212"/>
       <use xlink:href="#DejaVuSans-32" transform="translate(83.789062 0)"/>
       <use xlink:href="#DejaVuSans-30" transform="translate(147.412109 0)"/>
      </g>
     </g>
    </g>
    <g id="xtick_3">
     <g id="line2d_5">
      <path d="M 323.777838 310.198791 
L 323.777838 29.077969 
" clip-path="url(#p9bcd30f553)" style="fill: none; stroke-dasharray: 2.96,1.28; stroke-dashoffset: 0; stroke: #b0b0b0; stroke-opacity: 0.3; stroke-width: 0.8"/>
     </g>
     <g id="line2d_6">
      <g>
       <use xlink:href="#mb5a77fa18b" x="323.777838" y="310.198791" style="stroke: #000000; stroke-width: 0.8"/>
      </g>
     </g>
     <g id="text_3">
      <!-- −10 -->
      <g transform="translate(312.17026 325.557073) scale(0.11 -0.11)">
       <defs>
        <path id="DejaVuSans-31" d="M 794 531 
L 1825 531 
L 1825 4091 
L 703 3866 
L 703 4441 
L 1819 4666 
L 2450 4666 
L 2450 531 
L 3481 531 
L 3481 0 
L 794 0 
L 794 531 
z
" transform="scale(0.015625)"/>
       </defs>
       <use xlink:href="#DejaVuSans-2212"/>
       <use xlink:href="#DejaVuSans-31" transform="translate(83.789062 0)"/>
       <use xlink:href="#DejaVuSans-30" transform="translate(147.412109 0)"/>
      </g>
     </g>
    </g>
    <g id="xtick_4">
     <g id="line2d_7">
      <path d="M 451.502031 310.198791 
L 451.502031 29.077969 
" clip-path="url(#p9bcd30f553)" style="fill: none; stroke-dasharray: 2.96,1.28; stroke-dashoffset: 0; stroke: #b0b0b0; stroke-opacity: 0.3; stroke-width: 0.8"/>
     </g>
     <g id="line2d_8">
      <g>
       <use xlink:href="#mb5a77fa18b" x="451.502031" y="310.198791" style="stroke: #000000; stroke-width: 0.8"/>
      </g>
     </g>
     <g id="text_4">
      <!-- 0 -->
      <g transform="translate(448.002656 325.557073) scale(0.11 -0.11)">
       <use xlink:href="#DejaVuSans-30"/>
      </g>
     </g>
    </g>
    <g id="xtick_5">
     <g id="line2d_9">
      <path d="M 579.226225 310.198791 
L 579.226225 29.077969 
" clip-path="url(#p9bcd30f553)" style="fill: none; stroke-dasharray: 2.96,1.28; stroke-dashoffset: 0; stroke: #b0b0b0; stroke-opacity: 0.3; stroke-width: 0.8"/>
     </g>
     <g id="line2d_10">
      <g>
       <use xlink:href="#mb5a77fa18b" x="579.226225" y="310.198791" style="stroke: #000000; stroke-width: 0.8"/>
      </g>
     </g>
     <g id="text_5">
      <!-- 10 -->
      <g transform="translate(572.227475 325.557073) scale(0.11 -0.11)">
       <use xlink:href="#DejaVuSans-31"/>
       <use xlink:href="#DejaVuSans-30" transform="translate(63.623047 0)"/>
      </g>
     </g>
    </g>
    <g id="xtick_6">
     <g id="line2d_11">
      <path d="M 706.950418 310.198791 
L 706.950418 29.077969 
" clip-path="url(#p9bcd30f553)" style="fill: none; stroke-dasharray: 2.96,1.28; stroke-dashoffset: 0; stroke: #b0b0b0; stroke-opacity: 0.3; stroke-width: 0.8"/>
     </g>
     <g id="line2d_12">
      <g>
       <use xlink:href="#mb5a77fa18b" x="706.950418" y="310.198791" style="stroke: #000000; stroke-width: 0.8"/>
      </g>
     </g>
     <g id="text_6">
      <!-- 20 -->
      <g transform="translate(699.951668 325.557073) scale(0.11 -0.11)">
       <use xlink:href="#DejaVuSans-32"/>
       <use xlink:href="#DejaVuSans-30" transform="translate(63.623047 0)"/>
      </g>
     </g>
    </g>
    <g id="xtick_7">
     <g id="line2d_13">
      <path d="M 834.674612 310.198791 
L 834.674612 29.077969 
" clip-path="url(#p9bcd30f553)" style="fill: none; stroke-dasharray: 2.96,1.28; stroke-dashoffset: 0; stroke: #b0b0b0; stroke-opacity: 0.3; stroke-width: 0.8"/>
     </g>
     <g id="line2d_14">
      <g>
       <use xlink:href="#mb5a77fa18b" x="834.674612" y="310.198791" style="stroke: #000000; stroke-width: 0.8"/>
      </g>
     </g>
     <g id="text_7">
      <!-- 30 -->
      <g transform="translate(827.675862 325.557073) scale(0.11 -0.11)">
       <use xlink:href="#DejaVuSans-33"/>
       <use xlink:href="#DejaVuSans-30" transform="translate(63.623047 0)"/>
      </g>
     </g>
    </g>
    <g id="text_8">
     <!-- Lag (days) — positive = Polymarket leads freight -->
     <g transform="translate(316.843984 340.20301) scale(0.11 -0.11)">
      <defs>
       <path id="DejaVuSans-4c" d="M 628 4666 
L 1259 4666 
L 1259 531 
L 3531 531 
L 3531 0 
L 628 0 
L 628 4666 
z
" transform="scale(0.015625)"/>
       <path id="DejaVuSans-61" d="M 2194 1759 
Q 1497 1759 1228 1600 
Q 959 1441 959 1056 
Q 959 750 1161 570 
Q 1363 391 1709 391 
Q 2188 391 2477 730 
Q 2766 1069 2766 1631 
L 2766 1759 
L 2194 1759 
z
M 3341 1997 
L 3341 0 
L 2766 0 
L 2766 531 
Q 2569 213 2275 61 
Q 1981 -91 1556 -91 
Q 1019 -91 701 211 
Q 384 513 384 1019 
Q 384 1609 779 1909 
Q 1175 2209 1959 2209 
L 2766 2209 
L 2766 2266 
Q 2766 2663 2505 2880 
Q 2244 3097 1772 3097 
Q 1472 3097 1187 3025 
Q 903 2953 641 2809 
L 641 3341 
Q 956 3463 1253 3523 
Q 1550 3584 1831 3584 
Q 2591 3584 2966 3190 
Q 3341 2797 3341 1997 
z
" transform="scale(0.015625)"/>
       <path id="DejaVuSans-67" d="M 2906 1791 
Q 2906 2416 2648 2759 
Q 2391 3103 1925 3103 
Q 1463 3103 1205 2759 
Q 947 2416 947 1791 
Q 947 1169 1205 825 
Q 1463 481 1925 481 
Q 2391 481 2648 825 
Q 2906 1169 2906 1791 
z
M 3481 434 
Q 3481 -459 3084 -895 
Q 2688 -1331 1869 -1331 
Q 1566 -1331 1297 -1286 
Q 1028 -1241 775 -1147 
L 775 -588 
Q 1028 -725 1275 -790 
Q 1522 -856 1778 -856 
Q 2344 -856 2625 -561 
Q 2906 -266 2906 331 
L 2906 616 
Q 2728 306 2450 153 
Q 2172 0 1784 0 
Q 1141 0 747 490 
Q 353 981 353 1791 
Q 353 2603 747 3093 
Q 1141 3584 1784 3584 
Q 2172 3584 2450 3431 
Q 2728 3278 2906 2969 
L 2906 3500 
L 3481 3500 
L 3481 434 
z
" transform="scale(0.015625)"/>
       <path id="DejaVuSans-20" transform="scale(0.015625)"/>
       <path id="DejaVuSans-28" d="M 1984 4856 
Q 1566 4138 1362 3434 
Q 1159 2731 1159 2009 
Q 1159 1288 1364 580 
Q 1569 -128 1984 -844 
L 1484 -844 
Q 1016 -109 783 600 
Q 550 1309 550 2009 
Q 550 2706 781 3412 
Q 1013 4119 1484 4856 
L 1984 4856 
z
" transform="scale(0.015625)"/>
       <path id="DejaVuSans-64" d="M 2906 2969 
L 2906 4863 
L 3481 4863 
L 3481 0 
L 2906 0 
L 2906 525 
Q 2725 213 2448 61 
Q 2172 -91 1784 -91 
Q 1150 -91 751 415 
Q 353 922 353 1747 
Q 353 2572 751 3078 
Q 1150 3584 1784 3584 
Q 2172 3584 2448 3432 
Q 2725 3281 2906 2969 
z
M 947 1747 
Q 947 1113 1208 752 
Q 1469 391 1925 391 
Q 2381 391 2643 752 
Q 2906 1113 2906 1747 
Q 2906 2381 2643 2742 
Q 2381 3103 1925 3103 
Q 1469 3103 1208 2742 
Q 947 2381 947 1747 
z
" transform="scale(0.015625)"/>
       <path id="DejaVuSans-79" d="M 2059 -325 
Q 1816 -950 1584 -1140 
Q 1353 -1331 966 -1331 
L 506 -1331 
L 506 -850 
L 844 -850 
Q 1081 -850 1212 -737 
Q 1344 -625 1503 -206 
L 1606 56 
L 191 3500 
L 800 3500 
L 1894 763 
L 2988 3500 
L 3597 3500 
L 2059 -325 
z
" transform="scale(0.015625)"/>
       <path id="DejaVuSans-73" d="M 2834 3397 
L 2834 2853 
Q 2591 2978 2328 3040 
Q 2066 3103 1784 3103 
Q 1356 3103 1142 2972 
Q 928 2841 928 2578 
Q 928 2378 1081 2264 
Q 1234 2150 1697 2047 
L 1894 2003 
Q 2506 1872 2764 1633 
Q 3022 1394 3022 966 
Q 3022 478 2636 193 
Q 2250 -91 1575 -91 
Q 1294 -91 989 -36 
Q 684 19 347 128 
L 347 722 
Q 666 556 975 473 
Q 1284 391 1588 391 
Q 1994 391 2212 530 
Q 2431 669 2431 922 
Q 2431 1156 2273 1281 
Q 2116 1406 1581 1522 
L 1381 1569 
Q 847 1681 609 1914 
Q 372 2147 372 2553 
Q 372 3047 722 3315 
Q 1072 3584 1716 3584 
Q 2034 3584 2315 3537 
Q 2597 3491 2834 3397 
z
" transform="scale(0.015625)"/>
       <path id="DejaVuSans-29" d="M 513 4856 
L 1013 4856 
Q 1481 4119 1714 3412 
Q 1947 2706 1947 2009 
Q 1947 1309 1714 600 
Q 1481 -109 1013 -844 
L 513 -844 
Q 928 -128 1133 580 
Q 1338 1288 1338 2009 
Q 1338 2731 1133 3434 
Q 928 4138 513 4856 
z
" transform="scale(0.015625)"/>
       <path id="DejaVuSans-2014" d="M 313 1978 
L 6088 1978 
L 6088 1528 
L 313 1528 
L 313 1978 
z
" transform="scale(0.015625)"/>
       <path id="DejaVuSans-70" d="M 1159 525 
L 1159 -1331 
L 581 -1331 
L 581 3500 
L 1159 3500 
L 1159 2969 
Q 1341 3281 1617 3432 
Q 1894 3584 2278 3584 
Q 2916 3584 3314 3078 
Q 3713 2572 3713 1747 
Q 3713 922 3314 415 
Q 2916 -91 2278 -91 
Q 1894 -91 1617 61 
Q 1341 213 1159 525 
z
M 3116 1747 
Q 3116 2381 2855 2742 
Q 2594 3103 2138 3103 
Q 1681 3103 1420 2742 
Q 1159 2381 1159 1747 
Q 1159 1113 1420 752 
Q 1681 391 2138 391 
Q 2594 391 2855 752 
Q 3116 1113 3116 1747 
z
" transform="scale(0.015625)"/>
       <path id="DejaVuSans-6f" d="M 1959 3097 
Q 1497 3097 1228 2736 
Q 959 2375 959 1747 
Q 959 1119 1226 758 
Q 1494 397 1959 397 
Q 2419 397 2687 759 
Q 2956 1122 2956 1747 
Q 2956 2369 2687 2733 
Q 2419 3097 1959 3097 
z
M 1959 3584 
Q 2709 3584 3137 3096 
Q 3566 2609 3566 1747 
Q 3566 888 3137 398 
Q 2709 -91 1959 -91 
Q 1206 -91 779 398 
Q 353 888 353 1747 
Q 353 2609 779 3096 
Q 1206 3584 1959 3584 
z
" transform="scale(0.015625)"/>
       <path id="DejaVuSans-69" d="M 603 3500 
L 1178 3500 
L 1178 0 
L 603 0 
L 603 3500 
z
M 603 4863 
L 1178 4863 
L 1178 4134 
L 603 4134 
L 603 4863 
z
" transform="scale(0.015625)"/>
       <path id="DejaVuSans-74" d="M 1172 4494 
L 1172 3500 
L 2356 3500 
L 2356 3053 
L 1172 3053 
L 1172 1153 
Q 1172 725 1289 603 
Q 1406 481 1766 481 
L 2356 481 
L 2356 0 
L 1766 0 
Q 1100 0 847 248 
Q 594 497 594 1153 
L 594 3053 
L 172 3053 
L 172 3500 
L 594 3500 
L 594 4494 
L 1172 4494 
z
" transform="scale(0.015625)"/>
       <path id="DejaVuSans-76" d="M 191 3500 
L 800 3500 
L 1894 563 
L 2988 3500 
L 3597 3500 
L 2284 0 
L 1503 0 
L 191 3500 
z
" transform="scale(0.015625)"/>
       <path id="DejaVuSans-65" d="M 3597 1894 
L 3597 1613 
L 953 1613 
Q 991 1019 1311 708 
Q 1631 397 2203 397 
Q 2534 397 2845 478 
Q 3156 559 3463 722 
L 3463 178 
Q 3153 47 2828 -22 
Q 2503 -91 2169 -91 
Q 1331 -91 842 396 
Q 353 884 353 1716 
Q 353 2575 817 3079 
Q 1281 3584 2069 3584 
Q 2775 3584 3186 3129 
Q 3597 2675 3597 1894 
z
M 3022 2063 
Q 3016 2534 2758 2815 
Q 2500 3097 2075 3097 
Q 1594 3097 1305 2825 
Q 1016 2553 972 2059 
L 3022 2063 
z
" transform="scale(0.015625)"/>
       <path id="DejaVuSans-3d" d="M 678 2906 
L 4684 2906 
L 4684 2381 
L 678 2381 
L 678 2906 
z
M 678 1631 
L 4684 1631 
L 4684 1100 
L 678 1100 
L 678 1631 
z
" transform="scale(0.015625)"/>
       <path id="DejaVuSans-50" d="M 1259 4147 
L 1259 2394 
L 2053 2394 
Q 2494 2394 2734 2622 
Q 2975 2850 2975 3272 
Q 2975 3691 2734 3919 
Q 2494 4147 2053 4147 
L 1259 4147 
z
M 628 4666 
L 2053 4666 
Q 2838 4666 3239 4311 
Q 3641 3956 3641 3272 
Q 3641 2581 3239 2228 
Q 2838 1875 2053 1875 
L 1259 1875 
L 1259 0 
L 628 0 
L 628 4666 
z
" transform="scale(0.015625)"/>
       <path id="DejaVuSans-6c" d="M 603 4863 
L 1178 4863 
L 1178 0 
L 603 0 
L 603 4863 
z
" transform="scale(0.015625)"/>
       <path id="DejaVuSans-6d" d="M 3328 2828 
Q 3544 3216 3844 3400 
Q 4144 3584 4550 3584 
Q 5097 3584 5394 3201 
Q 5691 2819 5691 2113 
L 5691 0 
L 5113 0 
L 5113 2094 
Q 5113 2597 4934 2840 
Q 4756 3084 4391 3084 
Q 3944 3084 3684 2787 
Q 3425 2491 3425 1978 
L 3425 0 
L 2847 0 
L 2847 2094 
Q 2847 2600 2669 2842 
Q 2491 3084 2119 3084 
Q 1678 3084 1418 2786 
Q 1159 2488 1159 1978 
L 1159 0 
L 581 0 
L 581 3500 
L 1159 3500 
L 1159 2956 
Q 1356 3278 1631 3431 
Q 1906 3584 2284 3584 
Q 2666 3584 2933 3390 
Q 3200 3197 3328 2828 
z
" transform="scale(0.015625)"/>
       <path id="DejaVuSans-72" d="M 2631 2963 
Q 2534 3019 2420 3045 
Q 2306 3072 2169 3072 
Q 1681 3072 1420 2755 
Q 1159 2438 1159 1844 
L 1159 0 
L 581 0 
L 581 3500 
L 1159 3500 
L 1159 2956 
Q 1341 3275 1631 3429 
Q 1922 3584 2338 3584 
Q 2397 3584 2469 3576 
Q 2541 3569 2628 3553 
L 2631 2963 
z
" transform="scale(0.015625)"/>
       <path id="DejaVuSans-6b" d="M 581 4863 
L 1159 4863 
L 1159 1991 
L 2875 3500 
L 3609 3500 
L 1753 1863 
L 3688 0 
L 2938 0 
L 1159 1709 
L 1159 0 
L 581 0 
L 581 4863 
z
" transform="scale(0.015625)"/>
       <path id="DejaVuSans-66" d="M 2375 4863 
L 2375 4384 
L 1825 4384 
Q 1516 4384 1395 4259 
Q 1275 4134 1275 3809 
L 1275 3500 
L 2222 3500 
L 2222 3053 
L 1275 3053 
L 1275 0 
L 697 0 
L 697 3053 
L 147 3053 
L 147 3500 
L 697 3500 
L 697 3744 
Q 697 4328 969 4595 
Q 1241 4863 1831 4863 
L 2375 4863 
z
" transform="scale(0.015625)"/>
       <path id="DejaVuSans-68" d="M 3513 2113 
L 3513 0 
L 2938 0 
L 2938 2094 
Q 2938 2591 2744 2837 
Q 2550 3084 2163 3084 
Q 1697 3084 1428 2787 
Q 1159 2491 1159 1978 
L 1159 0 
L 581 0 
L 581 4863 
L 1159 4863 
L 1159 2956 
Q 1366 3272 1645 3428 
Q 1925 3584 2291 3584 
Q 2894 3584 3203 3211 
Q 3513 2838 3513 2113 
z
" transform="scale(0.015625)"/>
      </defs>
      <use xlink:href="#DejaVuSans-4c"/>
      <use xlink:href="#DejaVuSans-61" transform="translate(55.712891 0)"/>
      <use xlink:href="#DejaVuSans-67" transform="translate(116.992188 0)"/>
      <use xlink:href="#DejaVuSans-20" transform="translate(180.46875 0)"/>
      <use xlink:href="#DejaVuSans-28" transform="translate(212.255859 0)"/>
      <use xlink:href="#DejaVuSans-64" transform="translate(251.269531 0)"/>
      <use xlink:href="#DejaVuSans-61" transform="translate(314.746094 0)"/>
      <use xlink:href="#DejaVuSans-79" transform="translate(376.025391 0)"/>
      <use xlink:href="#DejaVuSans-73" transform="translate(435.205078 0)"/>
      <use xlink:href="#DejaVuSans-29" transform="translate(487.304688 0)"/>
      <use xlink:href="#DejaVuSans-20" transform="translate(526.318359 0)"/>
      <use xlink:href="#DejaVuSans-2014" transform="translate(558.105469 0)"/>
      <use xlink:href="#DejaVuSans-20" transform="translate(658.105469 0)"/>
      <use xlink:href="#DejaVuSans-70" transform="translate(689.892578 0)"/>
      <use xlink:href="#DejaVuSans-6f" transform="translate(753.369141 0)"/>
      <use xlink:href="#DejaVuSans-73" transform="translate(814.550781 0)"/>
      <use xlink:href="#DejaVuSans-69" transform="translate(866.650391 0)"/>
      <use xlink:href="#DejaVuSans-74" transform="translate(894.433594 0)"/>
      <use xlink:href="#DejaVuSans-69" transform="translate(933.642578 0)"/>
      <use xlink:href="#DejaVuSans-76" transform="translate(961.425781 0)"/>
      <use xlink:href="#DejaVuSans-65" transform="translate(1020.605469 0)"/>
      <use xlink:href="#DejaVuSans-20" transform="translate(1082.128906 0)"/>
      <use xlink:href="#DejaVuSans-3d" transform="translate(1113.916016 0)"/>
      <use xlink:href="#DejaVuSans-20" transform="translate(1197.705078 0)"/>
      <use xlink:href="#DejaVuSans-50" transform="translate(1229.492188 0)"/>
      <use xlink:href="#DejaVuSans-6f" transform="translate(1286.169922 0)"/>
      <use xlink:href="#DejaVuSans-6c" transform="translate(1347.351562 0)"/>
      <use xlink:href="#DejaVuSans-79" transform="translate(1375.134766 0)"/>
      <use xlink:href="#DejaVuSans-6d" transform="translate(1434.314453 0)"/>
      <use xlink:href="#DejaVuSans-61" transform="translate(1531.726562 0)"/>
      <use xlink:href="#DejaVuSans-72" transform="translate(1593.005859 0)"/>
      <use xlink:href="#DejaVuSans-6b" transform="translate(1634.119141 0)"/>
      <use xlink:href="#DejaVuSans-65" transform="translate(1688.404297 0)"/>
      <use xlink:href="#DejaVuSans-74" transform="translate(1749.927734 0)"/>
      <use xlink:href="#DejaVuSans-20" transform="translate(1789.136719 0)"/>
      <use xlink:href="#DejaVuSans-6c" transform="translate(1820.923828 0)"/>
      <use xlink:href="#DejaVuSans-65" transform="translate(1848.707031 0)"/>
      <use xlink:href="#DejaVuSans-61" transform="translate(1910.230469 0)"/>
      <use xlink:href="#DejaVuSans-64" transform="translate(1971.509766 0)"/>
      <use xlink:href="#DejaVuSans-73" transform="translate(2034.986328 0)"/>
      <use xlink:href="#DejaVuSans-20" transform="translate(2087.085938 0)"/>
      <use xlink:href="#DejaVuSans-66" transform="translate(2118.873047 0)"/>
      <use xlink:href="#DejaVuSans-72" transform="translate(2154.078125 0)"/>
      <use xlink:href="#DejaVuSans-65" transform="translate(2192.941406 0)"/>
      <use xlink:href="#DejaVuSans-69" transform="translate(2254.464844 0)"/>
      <use xlink:href="#DejaVuSans-67" transform="translate(2282.248047 0)"/>
      <use xlink:href="#DejaVuSans-68" transform="translate(2345.724609 0)"/>
      <use xlink:href="#DejaVuSans-74" transform="translate(2409.103516 0)"/>
     </g>
    </g>
   </g>
   <g id="matplotlib.axis_2">
    <g id="ytick_1">
     <g id="line2d_15">
      <path d="M 55.557031 286.576647 
L 847.447031 286.576647 
" clip-path="url(#p9bcd30f553)" style="fill: none; stroke-dasharray: 2.96,1.28; stroke-dashoffset: 0; stroke: #b0b0b0; stroke-opacity: 0.3; stroke-width: 0.8"/>
     </g>
     <g id="line2d_16">
      <defs>
       <path id="m1617b3a605" d="M 0 0 
L -3.5 0 
" style="stroke: #000000; stroke-width: 0.8"/>
      </defs>
      <g>
       <use xlink:href="#m1617b3a605" x="55.557031" y="286.576647" style="stroke: #000000; stroke-width: 0.8"/>
      </g>
     </g>
     <g id="text_9">
      <!-- −0.2 -->
      <g transform="translate(21.845938 290.755787) scale(0.11 -0.11)">
       <defs>
        <path id="DejaVuSans-2e" d="M 684 794 
L 1344 794 
L 1344 0 
L 684 0 
L 684 794 
z
" transform="scale(0.015625)"/>
       </defs>
       <use xlink:href="#DejaVuSans-2212"/>
       <use xlink:href="#DejaVuSans-30" transform="translate(83.789062 0)"/>
       <use xlink:href="#DejaVuSans-2e" transform="translate(147.412109 0)"/>
       <use xlink:href="#DejaVuSans-32" transform="translate(179.199219 0)"/>
      </g>
     </g>
    </g>
    <g id="ytick_2">
     <g id="line2d_17">
      <path d="M 55.557031 251.854012 
L 847.447031 251.854012 
" clip-path="url(#p9bcd30f553)" style="fill: none; stroke-dasharray: 2.96,1.28; stroke-dashoffset: 0; stroke: #b0b0b0; stroke-opacity: 0.3; stroke-width: 0.8"/>
     </g>
     <g id="line2d_18">
      <g>
       <use xlink:href="#m1617b3a605" x="55.557031" y="251.854012" style="stroke: #000000; stroke-width: 0.8"/>
      </g>
     </g>
     <g id="text_10">
      <!-- −0.1 -->
      <g transform="translate(21.845938 256.033152) scale(0.11 -0.11)">
       <use xlink:href="#DejaVuSans-2212"/>
       <use xlink:href="#DejaVuSans-30" transform="translate(83.789062 0)"/>
       <use xlink:href="#DejaVuSans-2e" transform="translate(147.412109 0)"/>
       <use xlink:href="#DejaVuSans-31" transform="translate(179.199219 0)"/>
      </g>
     </g>
    </g>
    <g id="ytick_3">
     <g id="line2d_19">
      <path d="M 55.557031 217.131377 
L 847.447031 217.131377 
" clip-path="url(#p9bcd30f553)" style="fill: none; stroke-dasharray: 2.96,1.28; stroke-dashoffset: 0; stroke: #b0b0b0; stroke-opacity: 0.3; stroke-width: 0.8"/>
     </g>
     <g id="line2d_20">
      <g>
       <use xlink:href="#m1617b3a605" x="55.557031" y="217.131377" style="stroke: #000000; stroke-width: 0.8"/>
      </g>
     </g>
     <g id="text_11">
      <!-- 0.0 -->
      <g transform="translate(31.063594 221.310517) scale(0.11 -0.11)">
       <use xlink:href="#DejaVuSans-30"/>
       <use xlink:href="#DejaVuSans-2e" transform="translate(63.623047 0)"/>
       <use xlink:href="#DejaVuSans-30" transform="translate(95.410156 0)"/>
      </g>
     </g>
    </g>
    <g id="ytick_4">
     <g id="line2d_21">
      <path d="M 55.557031 182.408742 
L 847.447031 182.408742 
" clip-path="url(#p9bcd30f553)" style="fill: none; stroke-dasharray: 2.96,1.28; stroke-dashoffset: 0; stroke: #b0b0b0; stroke-opacity: 0.3; stroke-width: 0.8"/>
     </g>
     <g id="line2d_22">
      <g>
       <use xlink:href="#m1617b3a605" x="55.557031" y="182.408742" style="stroke: #000000; stroke-width: 0.8"/>
      </g>
     </g>
     <g id="text_12">
      <!-- 0.1 -->
      <g transform="translate(31.063594 186.587882) scale(0.11 -0.11)">
       <use xlink:href="#DejaVuSans-30"/>
       <use xlink:href="#DejaVuSans-2e" transform="translate(63.623047 0)"/>
       <use xlink:href="#DejaVuSans-31" transform="translate(95.410156 0)"/>
      </g>
     </g>
    </g>
    <g id="ytick_5">
     <g id="line2d_23">
      <path d="M 55.557031 147.686107 
L 847.447031 147.686107 
" clip-path="url(#p9bcd30f553)" style="fill: none; stroke-dasharray: 2.96,1.28; stroke-dashoffset: 0; stroke: #b0b0b0; stroke-opacity: 0.3; stroke-width: 0.8"/>
     </g>
     <g id="line2d_24">
      <g>
       <use xlink:href="#m1617b3a605" x="55.557031" y="147.686107" style="stroke: #000000; stroke-width: 0.8"/>
      </g>
     </g>
     <g id="text_13">
      <!-- 0.2 -->
      <g transform="translate(31.063594 151.865247) scale(0.11 -0.11)">
       <use xlink:href="#DejaVuSans-30"/>
       <use xlink:href="#DejaVuSans-2e" transform="translate(63.623047 0)"/>
       <use xlink:href="#DejaVuSans-32" transform="translate(95.410156 0)"/>
      </g>
     </g>
    </g>
    <g id="ytick_6">
     <g id="line2d_25">
      <path d="M 55.557031 112.963472 
L 847.447031 112.963472 
" clip-path="url(#p9bcd30f553)" style="fill: none; stroke-dasharray: 2.96,1.28; stroke-dashoffset: 0; stroke: #b0b0b0; stroke-opacity: 0.3; stroke-width: 0.8"/>
     </g>
     <g id="line2d_26">
      <g>
       <use xlink:href="#m1617b3a605" x="55.557031" y="112.963472" style="stroke: #000000; stroke-width: 0.8"/>
      </g>
     </g>
     <g id="text_14">
      <!-- 0.3 -->
      <g transform="translate(31.063594 117.142612) scale(0.11 -0.11)">
       <use xlink:href="#DejaVuSans-30"/>
       <use xlink:href="#DejaVuSans-2e" transform="translate(63.623047 0)"/>
       <use xlink:href="#DejaVuSans-33" transform="translate(95.410156 0)"/>
      </g>
     </g>
    </g>
    <g id="ytick_7">
     <g id="line2d_27">
      <path d="M 55.557031 78.240837 
L 847.447031 78.240837 
" clip-path="url(#p9bcd30f553)" style="fill: none; stroke-dasharray: 2.96,1.28; stroke-dashoffset: 0; stroke: #b0b0b0; stroke-opacity: 0.3; stroke-width: 0.8"/>
     </g>
     <g id="line2d_28">
      <g>
       <use xlink:href="#m1617b3a605" x="55.557031" y="78.240837" style="stroke: #000000; stroke-width: 0.8"/>
      </g>
     </g>
     <g id="text_15">
      <!-- 0.4 -->
      <g transform="translate(31.063594 82.419977) scale(0.11 -0.11)">
       <defs>
        <path id="DejaVuSans-34" d="M 2419 4116 
L 825 1625 
L 2419 1625 
L 2419 4116 
z
M 2253 4666 
L 3047 4666 
L 3047 1625 
L 3713 1625 
L 3713 1100 
L 3047 1100 
L 3047 0 
L 2419 0 
L 2419 1100 
L 313 1100 
L 313 1709 
L 2253 4666 
z
" transform="scale(0.015625)"/>
       </defs>
       <use xlink:href="#DejaVuSans-30"/>
       <use xlink:href="#DejaVuSans-2e" transform="translate(63.623047 0)"/>
       <use xlink:href="#DejaVuSans-34" transform="translate(95.410156 0)"/>
      </g>
     </g>
    </g>
    <g id="ytick_8">
     <g id="line2d_29">
      <path d="M 55.557031 43.518202 
L 847.447031 43.518202 
" clip-path="url(#p9bcd30f553)" style="fill: none; stroke-dasharray: 2.96,1.28; stroke-dashoffset: 0; stroke: #b0b0b0; stroke-opacity: 0.3; stroke-width: 0.8"/>
     </g>
     <g id="line2d_30">
      <g>
       <use xlink:href="#m1617b3a605" x="55.557031" y="43.518202" style="stroke: #000000; stroke-width: 0.8"/>
      </g>
     </g>
     <g id="text_16">
      <!-- 0.5 -->
      <g transform="translate(31.063594 47.697343) scale(0.11 -0.11)">
       <defs>
        <path id="DejaVuSans-35" d="M 691 4666 
L 3169 4666 
L 3169 4134 
L 1269 4134 
L 1269 2991 
Q 1406 3038 1543 3061 
Q 1681 3084 1819 3084 
Q 2600 3084 3056 2656 
Q 3513 2228 3513 1497 
Q 3513 744 3044 326 
Q 2575 -91 1722 -91 
Q 1428 -91 1123 -41 
Q 819 9 494 109 
L 494 744 
Q 775 591 1075 516 
Q 1375 441 1709 441 
Q 2250 441 2565 725 
Q 2881 1009 2881 1497 
Q 2881 1984 2565 2268 
Q 2250 2553 1709 2553 
Q 1456 2553 1204 2497 
Q 953 2441 691 2322 
L 691 4666 
z
" transform="scale(0.015625)"/>
       </defs>
       <use xlink:href="#DejaVuSans-30"/>
       <use xlink:href="#DejaVuSans-2e" transform="translate(63.623047 0)"/>
       <use xlink:href="#DejaVuSans-35" transform="translate(95.410156 0)"/>
      </g>
     </g>
    </g>
    <g id="text_17">
     <!-- Pearson Correlation (r) -->
     <g transform="translate(15.558281 231.861427) rotate(-90) scale(0.11 -0.11)">
      <defs>
       <path id="DejaVuSans-6e" d="M 3513 2113 
L 3513 0 
L 2938 0 
L 2938 2094 
Q 2938 2591 2744 2837 
Q 2550 3084 2163 3084 
Q 1697 3084 1428 2787 
Q 1159 2491 1159 1978 
L 1159 0 
L 581 0 
L 581 3500 
L 1159 3500 
L 1159 2956 
Q 1366 3272 1645 3428 
Q 1925 3584 2291 3584 
Q 2894 3584 3203 3211 
Q 3513 2838 3513 2113 
z
" transform="scale(0.015625)"/>
       <path id="DejaVuSans-43" d="M 4122 4306 
L 4122 3641 
Q 3803 3938 3442 4084 
Q 3081 4231 2675 4231 
Q 1875 4231 1450 3742 
Q 1025 3253 1025 2328 
Q 1025 1406 1450 917 
Q 1875 428 2675 428 
Q 3081 428 3442 575 
Q 3803 722 4122 1019 
L 4122 359 
Q 3791 134 3420 21 
Q 3050 -91 2638 -91 
Q 1578 -91 968 557 
Q 359 1206 359 2328 
Q 359 3453 968 4101 
Q 1578 4750 2638 4750 
Q 3056 4750 3426 4639 
Q 3797 4528 4122 4306 
z
" transform="scale(0.015625)"/>
      </defs>
      <use xlink:href="#DejaVuSans-50"/>
      <use xlink:href="#DejaVuSans-65" transform="translate(56.677734 0)"/>
      <use xlink:href="#DejaVuSans-61" transform="translate(118.201172 0)"/>
      <use xlink:href="#DejaVuSans-72" transform="translate(179.480469 0)"/>
      <use xlink:href="#DejaVuSans-73" transform="translate(220.59375 0)"/>
      <use xlink:href="#DejaVuSans-6f" transform="translate(272.693359 0)"/>
      <use xlink:href="#DejaVuSans-6e" transform="translate(333.875 0)"/>
      <use xlink:href="#DejaVuSans-20" transform="translate(397.253906 0)"/>
      <use xlink:href="#DejaVuSans-43" transform="translate(429.041016 0)"/>
      <use xlink:href="#DejaVuSans-6f" transform="translate(498.865234 0)"/>
      <use xlink:href="#DejaVuSans-72" transform="translate(560.046875 0)"/>
      <use xlink:href="#DejaVuSans-72" transform="translate(599.410156 0)"/>
      <use xlink:href="#DejaVuSans-65" transform="translate(638.273438 0)"/>
      <use xlink:href="#DejaVuSans-6c" transform="translate(699.796875 0)"/>
      <use xlink:href="#DejaVuSans-61" transform="translate(727.580078 0)"/>
      <use xlink:href="#DejaVuSans-74" transform="translate(788.859375 0)"/>
      <use xlink:href="#DejaVuSans-69" transform="translate(828.068359 0)"/>
      <use xlink:href="#DejaVuSans-6f" transform="translate(855.851562 0)"/>
      <use xlink:href="#DejaVuSans-6e" transform="translate(917.033203 0)"/>
      <use xlink:href="#DejaVuSans-20" transform="translate(980.412109 0)"/>
      <use xlink:href="#DejaVuSans-28" transform="translate(1012.199219 0)"/>
      <use xlink:href="#DejaVuSans-72" transform="translate(1051.212891 0)"/>
      <use xlink:href="#DejaVuSans-29" transform="translate(1092.326172 0)"/>
     </g>
    </g>
   </g>
   <g id="line2d_31">
    <path d="M 55.557031 217.131377 
L 847.447031 217.131377 
" clip-path="url(#p9bcd30f553)" style="fill: none; stroke: #333333; stroke-width: 0.8; stroke-linecap: square"/>
   </g>
   <g id="line2d_32">
    <path d="M 451.502031 310.198791 
L 451.502031 29.077969 
" clip-path="url(#p9bcd30f553)" style="fill: none; stroke-dasharray: 2.96,1.28; stroke-dashoffset: 0; stroke: #333333; stroke-opacity: 0.5; stroke-width: 0.8"/>
   </g>
   <g id="patch_65">
    <path d="M 55.557031 310.198791 
L 55.557031 29.077969 
" style="fill: none; stroke: #000000; stroke-width: 0.8; stroke-linejoin: miter; stroke-linecap: square"/>
   </g>
   <g id="patch_66">
    <path d="M 55.557031 310.198791 
L 847.447031 310.198791 
" style="fill: none; stroke: #000000; stroke-width: 0.8; stroke-linejoin: miter; stroke-linecap: square"/>
   </g>
   <g id="patch_67">
    <path d="M 370.930917 26.322205 
Q 341.935593 33.838419 314.238985 41.017978 
" style="fill: none; stroke: #333333; stroke-width: 1.2; stroke-linecap: round"/>
    <path d="M 318.175476 41.857047 
L 314.238985 41.017978 
L 317.272135 38.372227 
" style="fill: none; stroke: #333333; stroke-width: 1.2; stroke-linecap: round"/>
   </g>
   <g id="text_18">
    <!-- Peak: r=0.505 -->
    <g style="fill: #333333" transform="translate(374.867515 14.416839) scale(0.09 -0.09)">
     <defs>
      <path id="DejaVuSans-3a" d="M 750 794 
L 1409 794 
L 1409 0 
L 750 0 
L 750 794 
z
M 750 3309 
L 1409 3309 
L 1409 2516 
L 750 2516 
L 750 3309 
z
" transform="scale(0.015625)"/>
     </defs>
     <use xlink:href="#DejaVuSans-50"/>
     <use xlink:href="#DejaVuSans-65" transform="translate(56.677734 0)"/>
     <use xlink:href="#DejaVuSans-61" transform="translate(118.201172 0)"/>
     <use xlink:href="#DejaVuSans-6b" transform="translate(179.480469 0)"/>
     <use xlink:href="#DejaVuSans-3a" transform="translate(237.390625 0)"/>
     <use xlink:href="#DejaVuSans-20" transform="translate(271.082031 0)"/>
     <use xlink:href="#DejaVuSans-72" transform="translate(302.869141 0)"/>
     <use xlink:href="#DejaVuSans-3d" transform="translate(343.982422 0)"/>
     <use xlink:href="#DejaVuSans-30" transform="translate(427.771484 0)"/>
     <use xlink:href="#DejaVuSans-2e" transform="translate(491.394531 0)"/>
     <use xlink:href="#DejaVuSans-35" transform="translate(523.181641 0)"/>
     <use xlink:href="#DejaVuSans-30" transform="translate(586.804688 0)"/>
     <use xlink:href="#DejaVuSans-35" transform="translate(650.427734 0)"/>
    </g>
    <!-- at lag=-11d -->
    <g style="fill: #333333" transform="translate(374.867515 24.49487) scale(0.09 -0.09)">
     <defs>
      <path id="DejaVuSans-2d" d="M 313 2009 
L 1997 2009 
L 1997 1497 
L 313 1497 
L 313 2009 
z
" transform="scale(0.015625)"/>
     </defs>
     <use xlink:href="#DejaVuSans-61"/>
     <use xlink:href="#DejaVuSans-74" transform="translate(61.279297 0)"/>
     <use xlink:href="#DejaVuSans-20" transform="translate(100.488281 0)"/>
     <use xlink:href="#DejaVuSans-6c" transform="translate(132.275391 0)"/>
     <use xlink:href="#DejaVuSans-61" transform="translate(160.058594 0)"/>
     <use xlink:href="#DejaVuSans-67" transform="translate(221.337891 0)"/>
     <use xlink:href="#DejaVuSans-3d" transform="translate(284.814453 0)"/>
     <use xlink:href="#DejaVuSans-2d" transform="translate(368.603516 0)"/>
     <use xlink:href="#DejaVuSans-31" transform="translate(404.6875 0)"/>
     <use xlink:href="#DejaVuSans-31" transform="translate(468.310547 0)"/>
     <use xlink:href="#DejaVuSans-64" transform="translate(531.933594 0)"/>
    </g>
   </g>
   <g id="text_19">
    <!-- Cross-Correlation: Will Trump lower tariffs on Canada by July 31 vs FBX11 -->
    <g transform="translate(181.137578 17.077969) scale(0.13 -0.13)">
     <defs>
      <path id="DejaVuSans-Bold-43" d="M 4288 256 
Q 3956 84 3597 -3 
Q 3238 -91 2847 -91 
Q 1681 -91 1000 561 
Q 319 1213 319 2328 
Q 319 3447 1000 4098 
Q 1681 4750 2847 4750 
Q 3238 4750 3597 4662 
Q 3956 4575 4288 4403 
L 4288 3438 
Q 3953 3666 3628 3772 
Q 3303 3878 2944 3878 
Q 2300 3878 1931 3465 
Q 1563 3053 1563 2328 
Q 1563 1606 1931 1193 
Q 2300 781 2944 781 
Q 3303 781 3628 887 
Q 3953 994 4288 1222 
L 4288 256 
z
" transform="scale(0.015625)"/>
      <path id="DejaVuSans-Bold-72" d="M 3138 2547 
Q 2991 2616 2845 2648 
Q 2700 2681 2553 2681 
Q 2122 2681 1889 2404 
Q 1656 2128 1656 1613 
L 1656 0 
L 538 0 
L 538 3500 
L 1656 3500 
L 1656 2925 
Q 1872 3269 2151 3426 
Q 2431 3584 2822 3584 
Q 2878 3584 2943 3579 
Q 3009 3575 3134 3559 
L 3138 2547 
z
" transform="scale(0.015625)"/>
      <path id="DejaVuSans-Bold-6f" d="M 2203 2784 
Q 1831 2784 1636 2517 
Q 1441 2250 1441 1747 
Q 1441 1244 1636 976 
Q 1831 709 2203 709 
Q 2569 709 2762 976 
Q 2956 1244 2956 1747 
Q 2956 2250 2762 2517 
Q 2569 2784 2203 2784 
z
M 2203 3584 
Q 3106 3584 3614 3096 
Q 4122 2609 4122 1747 
Q 4122 884 3614 396 
Q 3106 -91 2203 -91 
Q 1297 -91 786 396 
Q 275 884 275 1747 
Q 275 2609 786 3096 
Q 1297 3584 2203 3584 
z
" transform="scale(0.015625)"/>
      <path id="DejaVuSans-Bold-73" d="M 3272 3391 
L 3272 2541 
Q 2913 2691 2578 2766 
Q 2244 2841 1947 2841 
Q 1628 2841 1473 2761 
Q 1319 2681 1319 2516 
Q 1319 2381 1436 2309 
Q 1553 2238 1856 2203 
L 2053 2175 
Q 2913 2066 3209 1816 
Q 3506 1566 3506 1031 
Q 3506 472 3093 190 
Q 2681 -91 1863 -91 
Q 1516 -91 1145 -36 
Q 775 19 384 128 
L 384 978 
Q 719 816 1070 734 
Q 1422 653 1784 653 
Q 2113 653 2278 743 
Q 2444 834 2444 1013 
Q 2444 1163 2330 1236 
Q 2216 1309 1875 1350 
L 1678 1375 
Q 931 1469 631 1722 
Q 331 1975 331 2491 
Q 331 3047 712 3315 
Q 1094 3584 1881 3584 
Q 2191 3584 2531 3537 
Q 2872 3491 3272 3391 
z
" transform="scale(0.015625)"/>
      <path id="DejaVuSans-Bold-2d" d="M 347 2297 
L 2309 2297 
L 2309 1388 
L 347 1388 
L 347 2297 
z
" transform="scale(0.015625)"/>
      <path id="DejaVuSans-Bold-65" d="M 4031 1759 
L 4031 1441 
L 1416 1441 
Q 1456 1047 1700 850 
Q 1944 653 2381 653 
Q 2734 653 3104 758 
Q 3475 863 3866 1075 
L 3866 213 
Q 3469 63 3072 -14 
Q 2675 -91 2278 -91 
Q 1328 -91 801 392 
Q 275 875 275 1747 
Q 275 2603 792 3093 
Q 1309 3584 2216 3584 
Q 3041 3584 3536 3087 
Q 4031 2591 4031 1759 
z
M 2881 2131 
Q 2881 2450 2695 2645 
Q 2509 2841 2209 2841 
Q 1884 2841 1681 2658 
Q 1478 2475 1428 2131 
L 2881 2131 
z
" transform="scale(0.015625)"/>
      <path id="DejaVuSans-Bold-6c" d="M 538 4863 
L 1656 4863 
L 1656 0 
L 538 0 
L 538 4863 
z
" transform="scale(0.015625)"/>
      <path id="DejaVuSans-Bold-61" d="M 2106 1575 
Q 1756 1575 1579 1456 
Q 1403 1338 1403 1106 
Q 1403 894 1545 773 
Q 1688 653 1941 653 
Q 2256 653 2472 879 
Q 2688 1106 2688 1447 
L 2688 1575 
L 2106 1575 
z
M 3816 1997 
L 3816 0 
L 2688 0 
L 2688 519 
Q 2463 200 2181 54 
Q 1900 -91 1497 -91 
Q 953 -91 614 226 
Q 275 544 275 1050 
Q 275 1666 698 1953 
Q 1122 2241 2028 2241 
L 2688 2241 
L 2688 2328 
Q 2688 2594 2478 2717 
Q 2269 2841 1825 2841 
Q 1466 2841 1156 2769 
Q 847 2697 581 2553 
L 581 3406 
Q 941 3494 1303 3539 
Q 1666 3584 2028 3584 
Q 2975 3584 3395 3211 
Q 3816 2838 3816 1997 
z
" transform="scale(0.015625)"/>
      <path id="DejaVuSans-Bold-74" d="M 1759 4494 
L 1759 3500 
L 2913 3500 
L 2913 2700 
L 1759 2700 
L 1759 1216 
Q 1759 972 1856 886 
Q 1953 800 2241 800 
L 2816 800 
L 2816 0 
L 1856 0 
Q 1194 0 917 276 
Q 641 553 641 1216 
L 641 2700 
L 84 2700 
L 84 3500 
L 641 3500 
L 641 4494 
L 1759 4494 
z
" transform="scale(0.015625)"/>
      <path id="DejaVuSans-Bold-69" d="M 538 3500 
L 1656 3500 
L 1656 0 
L 538 0 
L 538 3500 
z
M 538 4863 
L 1656 4863 
L 1656 3950 
L 538 3950 
L 538 4863 
z
" transform="scale(0.015625)"/>
      <path id="DejaVuSans-Bold-6e" d="M 4056 2131 
L 4056 0 
L 2931 0 
L 2931 347 
L 2931 1631 
Q 2931 2084 2911 2256 
Q 2891 2428 2841 2509 
Q 2775 2619 2662 2680 
Q 2550 2741 2406 2741 
Q 2056 2741 1856 2470 
Q 1656 2200 1656 1722 
L 1656 0 
L 538 0 
L 538 3500 
L 1656 3500 
L 1656 2988 
Q 1909 3294 2193 3439 
Q 2478 3584 2822 3584 
Q 3428 3584 3742 3212 
Q 4056 2841 4056 2131 
z
" transform="scale(0.015625)"/>
      <path id="DejaVuSans-Bold-3a" d="M 716 3500 
L 1844 3500 
L 1844 2291 
L 716 2291 
L 716 3500 
z
M 716 1209 
L 1844 1209 
L 1844 0 
L 716 0 
L 716 1209 
z
" transform="scale(0.015625)"/>
      <path id="DejaVuSans-Bold-20" transform="scale(0.015625)"/>
      <path id="DejaVuSans-Bold-57" d="M 191 4666 
L 1344 4666 
L 2150 1275 
L 2950 4666 
L 4109 4666 
L 4909 1275 
L 5716 4666 
L 6859 4666 
L 5759 0 
L 4372 0 
L 3525 3547 
L 2688 0 
L 1300 0 
L 191 4666 
z
" transform="scale(0.015625)"/>
      <path id="DejaVuSans-Bold-54" d="M 31 4666 
L 4331 4666 
L 4331 3756 
L 2784 3756 
L 2784 0 
L 1581 0 
L 1581 3756 
L 31 3756 
L 31 4666 
z
" transform="scale(0.015625)"/>
      <path id="DejaVuSans-Bold-75" d="M 500 1363 
L 500 3500 
L 1625 3500 
L 1625 3150 
Q 1625 2866 1622 2436 
Q 1619 2006 1619 1863 
Q 1619 1441 1641 1255 
Q 1663 1069 1716 984 
Q 1784 875 1895 815 
Q 2006 756 2150 756 
Q 2500 756 2700 1025 
Q 2900 1294 2900 1772 
L 2900 3500 
L 4019 3500 
L 4019 0 
L 2900 0 
L 2900 506 
Q 2647 200 2364 54 
Q 2081 -91 1741 -91 
Q 1134 -91 817 281 
Q 500 653 500 1363 
z
" transform="scale(0.015625)"/>
      <path id="DejaVuSans-Bold-6d" d="M 3781 2919 
Q 3994 3244 4286 3414 
Q 4578 3584 4928 3584 
Q 5531 3584 5847 3212 
Q 6163 2841 6163 2131 
L 6163 0 
L 5038 0 
L 5038 1825 
Q 5041 1866 5042 1909 
Q 5044 1953 5044 2034 
Q 5044 2406 4934 2573 
Q 4825 2741 4581 2741 
Q 4263 2741 4089 2478 
Q 3916 2216 3909 1719 
L 3909 0 
L 2784 0 
L 2784 1825 
Q 2784 2406 2684 2573 
Q 2584 2741 2328 2741 
Q 2006 2741 1831 2477 
Q 1656 2213 1656 1722 
L 1656 0 
L 531 0 
L 531 3500 
L 1656 3500 
L 1656 2988 
Q 1863 3284 2130 3434 
Q 2397 3584 2719 3584 
Q 3081 3584 3359 3409 
Q 3638 3234 3781 2919 
z
" transform="scale(0.015625)"/>
      <path id="DejaVuSans-Bold-70" d="M 1656 506 
L 1656 -1331 
L 538 -1331 
L 538 3500 
L 1656 3500 
L 1656 2988 
Q 1888 3294 2169 3439 
Q 2450 3584 2816 3584 
Q 3463 3584 3878 3070 
Q 4294 2556 4294 1747 
Q 4294 938 3878 423 
Q 3463 -91 2816 -91 
Q 2450 -91 2169 54 
Q 1888 200 1656 506 
z
M 2400 2772 
Q 2041 2772 1848 2508 
Q 1656 2244 1656 1747 
Q 1656 1250 1848 986 
Q 2041 722 2400 722 
Q 2759 722 2948 984 
Q 3138 1247 3138 1747 
Q 3138 2247 2948 2509 
Q 2759 2772 2400 2772 
z
" transform="scale(0.015625)"/>
      <path id="DejaVuSans-Bold-77" d="M 225 3500 
L 1313 3500 
L 1900 1088 
L 2491 3500 
L 3425 3500 
L 4013 1113 
L 4603 3500 
L 5691 3500 
L 4769 0 
L 3547 0 
L 2956 2406 
L 2369 0 
L 1147 0 
L 225 3500 
z
" transform="scale(0.015625)"/>
      <path id="DejaVuSans-Bold-66" d="M 2841 4863 
L 2841 4128 
L 2222 4128 
Q 1984 4128 1890 4042 
Q 1797 3956 1797 3744 
L 1797 3500 
L 2753 3500 
L 2753 2700 
L 1797 2700 
L 1797 0 
L 678 0 
L 678 2700 
L 122 2700 
L 122 3500 
L 678 3500 
L 678 3744 
Q 678 4316 997 4589 
Q 1316 4863 1984 4863 
L 2841 4863 
z
" transform="scale(0.015625)"/>
      <path id="DejaVuSans-Bold-64" d="M 2919 2988 
L 2919 4863 
L 4044 4863 
L 4044 0 
L 2919 0 
L 2919 506 
Q 2688 197 2409 53 
Q 2131 -91 1766 -91 
Q 1119 -91 703 423 
Q 288 938 288 1747 
Q 288 2556 703 3070 
Q 1119 3584 1766 3584 
Q 2128 3584 2408 3439 
Q 2688 3294 2919 2988 
z
M 2181 722 
Q 2541 722 2730 984 
Q 2919 1247 2919 1747 
Q 2919 2247 2730 2509 
Q 2541 2772 2181 2772 
Q 1825 2772 1636 2509 
Q 1447 2247 1447 1747 
Q 1447 1247 1636 984 
Q 1825 722 2181 722 
z
" transform="scale(0.015625)"/>
      <path id="DejaVuSans-Bold-62" d="M 2400 722 
Q 2759 722 2948 984 
Q 3138 1247 3138 1747 
Q 3138 2247 2948 2509 
Q 2759 2772 2400 2772 
Q 2041 2772 1848 2508 
Q 1656 2244 1656 1747 
Q 1656 1250 1848 986 
Q 2041 722 2400 722 
z
M 1656 2988 
Q 1888 3294 2169 3439 
Q 2450 3584 2816 3584 
Q 3463 3584 3878 3070 
Q 4294 2556 4294 1747 
Q 4294 938 3878 423 
Q 3463 -91 2816 -91 
Q 2450 -91 2169 54 
Q 1888 200 1656 506 
L 1656 0 
L 538 0 
L 538 4863 
L 1656 4863 
L 1656 2988 
z
" transform="scale(0.015625)"/>
      <path id="DejaVuSans-Bold-79" d="M 78 3500 
L 1197 3500 
L 2138 1125 
L 2938 3500 
L 4056 3500 
L 2584 -331 
Q 2363 -916 2067 -1148 
Q 1772 -1381 1288 -1381 
L 641 -1381 
L 641 -647 
L 991 -647 
Q 1275 -647 1404 -556 
Q 1534 -466 1606 -231 
L 1638 -134 
L 78 3500 
z
" transform="scale(0.015625)"/>
      <path id="DejaVuSans-Bold-4a" d="M 588 4666 
L 1791 4666 
L 1791 453 
Q 1791 -419 1317 -850 
Q 844 -1281 -116 -1281 
L -359 -1281 
L -359 -372 
L -172 -372 
Q 203 -372 395 -162 
Q 588 47 588 453 
L 588 4666 
z
" transform="scale(0.015625)"/>
      <path id="DejaVuSans-Bold-33" d="M 2981 2516 
Q 3453 2394 3698 2092 
Q 3944 1791 3944 1325 
Q 3944 631 3412 270 
Q 2881 -91 1863 -91 
Q 1503 -91 1142 -33 
Q 781 25 428 141 
L 428 1069 
Q 766 900 1098 814 
Q 1431 728 1753 728 
Q 2231 728 2486 893 
Q 2741 1059 2741 1369 
Q 2741 1688 2480 1852 
Q 2219 2016 1709 2016 
L 1228 2016 
L 1228 2791 
L 1734 2791 
Q 2188 2791 2409 2933 
Q 2631 3075 2631 3366 
Q 2631 3634 2415 3781 
Q 2200 3928 1806 3928 
Q 1516 3928 1219 3862 
Q 922 3797 628 3669 
L 628 4550 
Q 984 4650 1334 4700 
Q 1684 4750 2022 4750 
Q 2931 4750 3382 4451 
Q 3834 4153 3834 3553 
Q 3834 3144 3618 2883 
Q 3403 2622 2981 2516 
z
" transform="scale(0.015625)"/>
      <path id="DejaVuSans-Bold-31" d="M 750 831 
L 1813 831 
L 1813 3847 
L 722 3622 
L 722 4441 
L 1806 4666 
L 2950 4666 
L 2950 831 
L 4013 831 
L 4013 0 
L 750 0 
L 750 831 
z
" transform="scale(0.015625)"/>
      <path id="DejaVuSans-Bold-76" d="M 97 3500 
L 1216 3500 
L 2088 1081 
L 2956 3500 
L 4078 3500 
L 2700 0 
L 1472 0 
L 97 3500 
z
" transform="scale(0.015625)"/>
      <path id="DejaVuSans-Bold-46" d="M 588 4666 
L 3834 4666 
L 3834 3756 
L 1791 3756 
L 1791 2888 
L 3713 2888 
L 3713 1978 
L 1791 1978 
L 1791 0 
L 588 0 
L 588 4666 
z
" transform="scale(0.015625)"/>
      <path id="DejaVuSans-Bold-42" d="M 2456 2859 
Q 2741 2859 2887 2984 
Q 3034 3109 3034 3353 
Q 3034 3594 2887 3720 
Q 2741 3847 2456 3847 
L 1791 3847 
L 1791 2859 
L 2456 2859 
z
M 2497 819 
Q 2859 819 3042 972 
Q 3225 1125 3225 1434 
Q 3225 1738 3044 1889 
Q 2863 2041 2497 2041 
L 1791 2041 
L 1791 819 
L 2497 819 
z
M 3616 2497 
Q 4003 2384 4215 2081 
Q 4428 1778 4428 1338 
Q 4428 663 3972 331 
Q 3516 0 2584 0 
L 588 0 
L 588 4666 
L 2394 4666 
Q 3366 4666 3802 4372 
Q 4238 4078 4238 3431 
Q 4238 3091 4078 2852 
Q 3919 2613 3616 2497 
z
" transform="scale(0.015625)"/>
      <path id="DejaVuSans-Bold-58" d="M 3188 2381 
L 4806 0 
L 3553 0 
L 2463 1594 
L 1381 0 
L 122 0 
L 1741 2381 
L 184 4666 
L 1441 4666 
L 2463 3163 
L 3481 4666 
L 4744 4666 
L 3188 2381 
z
" transform="scale(0.015625)"/>
     </defs>
     <use xlink:href="#DejaVuSans-Bold-43"/>
     <use xlink:href="#DejaVuSans-Bold-72" transform="translate(73.388672 0)"/>
     <use xlink:href="#DejaVuSans-Bold-6f" transform="translate(122.705078 0)"/>
     <use xlink:href="#DejaVuSans-Bold-73" transform="translate(191.40625 0)"/>
     <use xlink:href="#DejaVuSans-Bold-73" transform="translate(250.927734 0)"/>
     <use xlink:href="#DejaVuSans-Bold-2d" transform="translate(310.449219 0)"/>
     <use xlink:href="#DejaVuSans-Bold-43" transform="translate(351.953125 0)"/>
     <use xlink:href="#DejaVuSans-Bold-6f" transform="translate(425.341797 0)"/>
     <use xlink:href="#DejaVuSans-Bold-72" transform="translate(494.042969 0)"/>
     <use xlink:href="#DejaVuSans-Bold-72" transform="translate(543.359375 0)"/>
     <use xlink:href="#DejaVuSans-Bold-65" transform="translate(592.675781 0)"/>
     <use xlink:href="#DejaVuSans-Bold-6c" transform="translate(660.498047 0)"/>
     <use xlink:href="#DejaVuSans-Bold-61" transform="translate(694.775391 0)"/>
     <use xlink:href="#DejaVuSans-Bold-74" transform="translate(762.255859 0)"/>
     <use xlink:href="#DejaVuSans-Bold-69" transform="translate(810.058594 0)"/>
     <use xlink:href="#DejaVuSans-Bold-6f" transform="translate(844.335938 0)"/>
     <use xlink:href="#DejaVuSans-Bold-6e" transform="translate(913.037109 0)"/>
     <use xlink:href="#DejaVuSans-Bold-3a" transform="translate(984.228516 0)"/>
     <use xlink:href="#DejaVuSans-Bold-20" transform="translate(1024.21875 0)"/>
     <use xlink:href="#DejaVuSans-Bold-57" transform="translate(1059.033203 0)"/>
     <use xlink:href="#DejaVuSans-Bold-69" transform="translate(1169.335938 0)"/>
     <use xlink:href="#DejaVuSans-Bold-6c" transform="translate(1203.613281 0)"/>
     <use xlink:href="#DejaVuSans-Bold-6c" transform="translate(1237.890625 0)"/>
     <use xlink:href="#DejaVuSans-Bold-20" transform="translate(1272.167969 0)"/>
     <use xlink:href="#DejaVuSans-Bold-54" transform="translate(1306.982422 0)"/>
     <use xlink:href="#DejaVuSans-Bold-72" transform="translate(1364.195312 0)"/>
     <use xlink:href="#DejaVuSans-Bold-75" transform="translate(1413.511719 0)"/>
     <use xlink:href="#DejaVuSans-Bold-6d" transform="translate(1484.703125 0)"/>
     <use xlink:href="#DejaVuSans-Bold-70" transform="translate(1588.902344 0)"/>
     <use xlink:href="#DejaVuSans-Bold-20" transform="translate(1660.484375 0)"/>
     <use xlink:href="#DejaVuSans-Bold-6c" transform="translate(1695.298828 0)"/>
     <use xlink:href="#DejaVuSans-Bold-6f" transform="translate(1729.576172 0)"/>
     <use xlink:href="#DejaVuSans-Bold-77" transform="translate(1798.277344 0)"/>
     <use xlink:href="#DejaVuSans-Bold-65" transform="translate(1890.660156 0)"/>
     <use xlink:href="#DejaVuSans-Bold-72" transform="translate(1958.482422 0)"/>
     <use xlink:href="#DejaVuSans-Bold-20" transform="translate(2007.798828 0)"/>
     <use xlink:href="#DejaVuSans-Bold-74" transform="translate(2042.613281 0)"/>
     <use xlink:href="#DejaVuSans-Bold-61" transform="translate(2090.416016 0)"/>
     <use xlink:href="#DejaVuSans-Bold-72" transform="translate(2157.896484 0)"/>
     <use xlink:href="#DejaVuSans-Bold-69" transform="translate(2207.212891 0)"/>
     <use xlink:href="#DejaVuSans-Bold-66" transform="translate(2241.490234 0)"/>
     <use xlink:href="#DejaVuSans-Bold-66" transform="translate(2284.996094 0)"/>
     <use xlink:href="#DejaVuSans-Bold-73" transform="translate(2328.501953 0)"/>
     <use xlink:href="#DejaVuSans-Bold-20" transform="translate(2388.023438 0)"/>
     <use xlink:href="#DejaVuSans-Bold-6f" transform="translate(2422.837891 0)"/>
     <use xlink:href="#DejaVuSans-Bold-6e" transform="translate(2491.539062 0)"/>
     <use xlink:href="#DejaVuSans-Bold-20" transform="translate(2562.730469 0)"/>
     <use xlink:href="#DejaVuSans-Bold-43" transform="translate(2597.544922 0)"/>
     <use xlink:href="#DejaVuSans-Bold-61" transform="translate(2670.933594 0)"/>
     <use xlink:href="#DejaVuSans-Bold-6e" transform="translate(2738.414062 0)"/>
     <use xlink:href="#DejaVuSans-Bold-61" transform="translate(2809.605469 0)"/>
     <use xlink:href="#DejaVuSans-Bold-64" transform="translate(2877.085938 0)"/>
     <use xlink:href="#DejaVuSans-Bold-61" transform="translate(2948.667969 0)"/>
     <use xlink:href="#DejaVuSans-Bold-20" transform="translate(3016.148438 0)"/>
     <use xlink:href="#DejaVuSans-Bold-62" transform="translate(3050.962891 0)"/>
     <use xlink:href="#DejaVuSans-Bold-79" transform="translate(3122.544922 0)"/>
     <use xlink:href="#DejaVuSans-Bold-20" transform="translate(3187.730469 0)"/>
     <use xlink:href="#DejaVuSans-Bold-4a" transform="translate(3222.544922 0)"/>
     <use xlink:href="#DejaVuSans-Bold-75" transform="translate(3259.751953 0)"/>
     <use xlink:href="#DejaVuSans-Bold-6c" transform="translate(3330.943359 0)"/>
     <use xlink:href="#DejaVuSans-Bold-79" transform="translate(3365.220703 0)"/>
     <use xlink:href="#DejaVuSans-Bold-20" transform="translate(3430.40625 0)"/>
     <use xlink:href="#DejaVuSans-Bold-33" transform="translate(3465.220703 0)"/>
     <use xlink:href="#DejaVuSans-Bold-31" transform="translate(3534.800781 0)"/>
     <use xlink:href="#DejaVuSans-Bold-20" transform="translate(3604.380859 0)"/>
     <use xlink:href="#DejaVuSans-Bold-76" transform="translate(3639.195312 0)"/>
     <use xlink:href="#DejaVuSans-Bold-73" transform="translate(3704.380859 0)"/>
     <use xlink:href="#DejaVuSans-Bold-20" transform="translate(3763.902344 0)"/>
     <use xlink:href="#DejaVuSans-Bold-46" transform="translate(3798.716797 0)"/>
     <use xlink:href="#DejaVuSans-Bold-42" transform="translate(3867.027344 0)"/>
     <use xlink:href="#DejaVuSans-Bold-58" transform="translate(3943.248047 0)"/>
     <use xlink:href="#DejaVuSans-Bold-31" transform="translate(4020.347656 0)"/>
     <use xlink:href="#DejaVuSans-Bold-31" transform="translate(4089.927734 0)"/>
    </g>
   </g>
   <g id="legend_1">
    <g id="patch_68">
     <path d="M 679.449375 75.908906 
L 841.147031 75.908906 
Q 842.947031 75.908906 842.947031 74.108906 
L 842.947031 35.377969 
Q 842.947031 33.577969 841.147031 33.577969 
L 679.449375 33.577969 
Q 677.649375 33.577969 677.649375 35.377969 
L 677.649375 74.108906 
Q 677.649375 75.908906 679.449375 75.908906 
z
" style="fill: #ffffff; opacity: 0.9; stroke: #cccccc; stroke-linejoin: miter"/>
    </g>
    <g id="patch_69">
     <path d="M 681.249375 44.016562 
L 699.249375 44.016562 
L 699.249375 37.716562 
L 681.249375 37.716562 
z
" style="fill: #1f6aa5"/>
    </g>
    <g id="text_20">
     <!-- Significant positive (p&lt;0.05) -->
     <g transform="translate(706.449375 44.016562) scale(0.09 -0.09)">
      <defs>
       <path id="DejaVuSans-53" d="M 3425 4513 
L 3425 3897 
Q 3066 4069 2747 4153 
Q 2428 4238 2131 4238 
Q 1616 4238 1336 4038 
Q 1056 3838 1056 3469 
Q 1056 3159 1242 3001 
Q 1428 2844 1947 2747 
L 2328 2669 
Q 3034 2534 3370 2195 
Q 3706 1856 3706 1288 
Q 3706 609 3251 259 
Q 2797 -91 1919 -91 
Q 1588 -91 1214 -16 
Q 841 59 441 206 
L 441 856 
Q 825 641 1194 531 
Q 1563 422 1919 422 
Q 2459 422 2753 634 
Q 3047 847 3047 1241 
Q 3047 1584 2836 1778 
Q 2625 1972 2144 2069 
L 1759 2144 
Q 1053 2284 737 2584 
Q 422 2884 422 3419 
Q 422 4038 858 4394 
Q 1294 4750 2059 4750 
Q 2388 4750 2728 4690 
Q 3069 4631 3425 4513 
z
" transform="scale(0.015625)"/>
       <path id="DejaVuSans-63" d="M 3122 3366 
L 3122 2828 
Q 2878 2963 2633 3030 
Q 2388 3097 2138 3097 
Q 1578 3097 1268 2742 
Q 959 2388 959 1747 
Q 959 1106 1268 751 
Q 1578 397 2138 397 
Q 2388 397 2633 464 
Q 2878 531 3122 666 
L 3122 134 
Q 2881 22 2623 -34 
Q 2366 -91 2075 -91 
Q 1284 -91 818 406 
Q 353 903 353 1747 
Q 353 2603 823 3093 
Q 1294 3584 2113 3584 
Q 2378 3584 2631 3529 
Q 2884 3475 3122 3366 
z
" transform="scale(0.015625)"/>
       <path id="DejaVuSans-3c" d="M 4684 3150 
L 1459 2003 
L 4684 863 
L 4684 294 
L 678 1747 
L 678 2266 
L 4684 3719 
L 4684 3150 
z
" transform="scale(0.015625)"/>
      </defs>
      <use xlink:href="#DejaVuSans-53"/>
      <use xlink:href="#DejaVuSans-69" transform="translate(63.476562 0)"/>
      <use xlink:href="#DejaVuSans-67" transform="translate(91.259766 0)"/>
      <use xlink:href="#DejaVuSans-6e" transform="translate(154.736328 0)"/>
      <use xlink:href="#DejaVuSans-69" transform="translate(218.115234 0)"/>
      <use xlink:href="#DejaVuSans-66" transform="translate(245.898438 0)"/>
      <use xlink:href="#DejaVuSans-69" transform="translate(281.103516 0)"/>
      <use xlink:href="#DejaVuSans-63" transform="translate(308.886719 0)"/>
      <use xlink:href="#DejaVuSans-61" transform="translate(363.867188 0)"/>
      <use xlink:href="#DejaVuSans-6e" transform="translate(425.146484 0)"/>
      <use xlink:href="#DejaVuSans-74" transform="translate(488.525391 0)"/>
      <use xlink:href="#DejaVuSans-20" transform="translate(527.734375 0)"/>
      <use xlink:href="#DejaVuSans-70" transform="translate(559.521484 0)"/>
      <use xlink:href="#DejaVuSans-6f" transform="translate(622.998047 0)"/>
      <use xlink:href="#DejaVuSans-73" transform="translate(684.179688 0)"/>
      <use xlink:href="#DejaVuSans-69" transform="translate(736.279297 0)"/>
      <use xlink:href="#DejaVuSans-74" transform="translate(764.0625 0)"/>
      <use xlink:href="#DejaVuSans-69" transform="translate(803.271484 0)"/>
      <use xlink:href="#DejaVuSans-76" transform="translate(831.054688 0)"/>
      <use xlink:href="#DejaVuSans-65" transform="translate(890.234375 0)"/>
      <use xlink:href="#DejaVuSans-20" transform="translate(951.757812 0)"/>
      <use xlink:href="#DejaVuSans-28" transform="translate(983.544922 0)"/>
      <use xlink:href="#DejaVuSans-70" transform="translate(1022.558594 0)"/>
      <use xlink:href="#DejaVuSans-3c" transform="translate(1086.035156 0)"/>
      <use xlink:href="#DejaVuSans-30" transform="translate(1169.824219 0)"/>
      <use xlink:href="#DejaVuSans-2e" transform="translate(1233.447266 0)"/>
      <use xlink:href="#DejaVuSans-30" transform="translate(1265.234375 0)"/>
      <use xlink:href="#DejaVuSans-35" transform="translate(1328.857422 0)"/>
      <use xlink:href="#DejaVuSans-29" transform="translate(1392.480469 0)"/>
     </g>
    </g>
    <g id="patch_70">
     <path d="M 681.249375 57.226875 
L 699.249375 57.226875 
L 699.249375 50.926875 
L 681.249375 50.926875 
z
" style="fill: #e07b39"/>
    </g>
    <g id="text_21">
     <!-- Significant negative (p&lt;0.05) -->
     <g transform="translate(706.449375 57.226875) scale(0.09 -0.09)">
      <use xlink:href="#DejaVuSans-53"/>
      <use xlink:href="#DejaVuSans-69" transform="translate(63.476562 0)"/>
      <use xlink:href="#DejaVuSans-67" transform="translate(91.259766 0)"/>
      <use xlink:href="#DejaVuSans-6e" transform="translate(154.736328 0)"/>
      <use xlink:href="#DejaVuSans-69" transform="translate(218.115234 0)"/>
      <use xlink:href="#DejaVuSans-66" transform="translate(245.898438 0)"/>
      <use xlink:href="#DejaVuSans-69" transform="translate(281.103516 0)"/>
      <use xlink:href="#DejaVuSans-63" transform="translate(308.886719 0)"/>
      <use xlink:href="#DejaVuSans-61" transform="translate(363.867188 0)"/>
      <use xlink:href="#DejaVuSans-6e" transform="translate(425.146484 0)"/>
      <use xlink:href="#DejaVuSans-74" transform="translate(488.525391 0)"/>
      <use xlink:href="#DejaVuSans-20" transform="translate(527.734375 0)"/>
      <use xlink:href="#DejaVuSans-6e" transform="translate(559.521484 0)"/>
      <use xlink:href="#DejaVuSans-65" transform="translate(622.900391 0)"/>
      <use xlink:href="#DejaVuSans-67" transform="translate(684.423828 0)"/>
      <use xlink:href="#DejaVuSans-61" transform="translate(747.900391 0)"/>
      <use xlink:href="#DejaVuSans-74" transform="translate(809.179688 0)"/>
      <use xlink:href="#DejaVuSans-69" transform="translate(848.388672 0)"/>
      <use xlink:href="#DejaVuSans-76" transform="translate(876.171875 0)"/>
      <use xlink:href="#DejaVuSans-65" transform="translate(935.351562 0)"/>
      <use xlink:href="#DejaVuSans-20" transform="translate(996.875 0)"/>
      <use xlink:href="#DejaVuSans-28" transform="translate(1028.662109 0)"/>
      <use xlink:href="#DejaVuSans-70" transform="translate(1067.675781 0)"/>
      <use xlink:href="#DejaVuSans-3c" transform="translate(1131.152344 0)"/>
      <use xlink:href="#DejaVuSans-30" transform="translate(1214.941406 0)"/>
      <use xlink:href="#DejaVuSans-2e" transform="translate(1278.564453 0)"/>
      <use xlink:href="#DejaVuSans-30" transform="translate(1310.351562 0)"/>
      <use xlink:href="#DejaVuSans-35" transform="translate(1373.974609 0)"/>
      <use xlink:href="#DejaVuSans-29" transform="translate(1437.597656 0)"/>
     </g>
    </g>
    <g id="patch_71">
     <path d="M 681.249375 70.437187 
L 699.249375 70.437187 
L 699.249375 64.137187 
L 681.249375 64.137187 
z
" style="fill: #a8c8e8"/>
    </g>
    <g id="text_22">
     <!-- Not significant -->
     <g transform="translate(706.449375 70.437187) scale(0.09 -0.09)">
      <defs>
       <path id="DejaVuSans-4e" d="M 628 4666 
L 1478 4666 
L 3547 763 
L 3547 4666 
L 4159 4666 
L 4159 0 
L 3309 0 
L 1241 3903 
L 1241 0 
L 628 0 
L 628 4666 
z
" transform="scale(0.015625)"/>
      </defs>
      <use xlink:href="#DejaVuSans-4e"/>
      <use xlink:href="#DejaVuSans-6f" transform="translate(74.804688 0)"/>
      <use xlink:href="#DejaVuSans-74" transform="translate(135.986328 0)"/>
      <use xlink:href="#DejaVuSans-20" transform="translate(175.195312 0)"/>
      <use xlink:href="#DejaVuSans-73" transform="translate(206.982422 0)"/>
      <use xlink:href="#DejaVuSans-69" transform="translate(259.082031 0)"/>
      <use xlink:href="#DejaVuSans-67" transform="translate(286.865234 0)"/>
      <use xlink:href="#DejaVuSans-6e" transform="translate(350.341797 0)"/>
      <use xlink:href="#DejaVuSans-69" transform="translate(413.720703 0)"/>
      <use xlink:href="#DejaVuSans-66" transform="translate(441.503906 0)"/>
      <use xlink:href="#DejaVuSans-69" transform="translate(476.708984 0)"/>
      <use xlink:href="#DejaVuSans-63" transform="translate(504.492188 0)"/>
      <use xlink:href="#DejaVuSans-61" transform="translate(559.472656 0)"/>
      <use xlink:href="#DejaVuSans-6e" transform="translate(620.751953 0)"/>
      <use xlink:href="#DejaVuSans-74" transform="translate(684.130859 0)"/>
     </g>
    </g>
   </g>
  </g>
  <g id="text_23">
   <!-- Sources: Polymarket CLOB API | Freight data -->
   <g style="fill: #888888" transform="translate(695.9575 349.428323) scale(0.07 -0.07)">
    <defs>
     <path id="DejaVuSans-75" d="M 544 1381 
L 544 3500 
L 1119 3500 
L 1119 1403 
Q 1119 906 1312 657 
Q 1506 409 1894 409 
Q 2359 409 2629 706 
Q 2900 1003 2900 1516 
L 2900 3500 
L 3475 3500 
L 3475 0 
L 2900 0 
L 2900 538 
Q 2691 219 2414 64 
Q 2138 -91 1772 -91 
Q 1169 -91 856 284 
Q 544 659 544 1381 
z
M 1991 3584 
L 1991 3584 
z
" transform="scale(0.015625)"/>
     <path id="DejaVuSans-4f" d="M 2522 4238 
Q 1834 4238 1429 3725 
Q 1025 3213 1025 2328 
Q 1025 1447 1429 934 
Q 1834 422 2522 422 
Q 3209 422 3611 934 
Q 4013 1447 4013 2328 
Q 4013 3213 3611 3725 
Q 3209 4238 2522 4238 
z
M 2522 4750 
Q 3503 4750 4090 4092 
Q 4678 3434 4678 2328 
Q 4678 1225 4090 567 
Q 3503 -91 2522 -91 
Q 1538 -91 948 565 
Q 359 1222 359 2328 
Q 359 3434 948 4092 
Q 1538 4750 2522 4750 
z
" transform="scale(0.015625)"/>
     <path id="DejaVuSans-42" d="M 1259 2228 
L 1259 519 
L 2272 519 
Q 2781 519 3026 730 
Q 3272 941 3272 1375 
Q 3272 1813 3026 2020 
Q 2781 2228 2272 2228 
L 1259 2228 
z
M 1259 4147 
L 1259 2741 
L 2194 2741 
Q 2656 2741 2882 2914 
Q 3109 3088 3109 3444 
Q 3109 3797 2882 3972 
Q 2656 4147 2194 4147 
L 1259 4147 
z
M 628 4666 
L 2241 4666 
Q 2963 4666 3353 4366 
Q 3744 4066 3744 3513 
Q 3744 3084 3544 2831 
Q 3344 2578 2956 2516 
Q 3422 2416 3680 2098 
Q 3938 1781 3938 1306 
Q 3938 681 3513 340 
Q 3088 0 2303 0 
L 628 0 
L 628 4666 
z
" transform="scale(0.015625)"/>
     <path id="DejaVuSans-41" d="M 2188 4044 
L 1331 1722 
L 3047 1722 
L 2188 4044 
z
M 1831 4666 
L 2547 4666 
L 4325 0 
L 3669 0 
L 3244 1197 
L 1141 1197 
L 716 0 
L 50 0 
L 1831 4666 
z
" transform="scale(0.015625)"/>
     <path id="DejaVuSans-49" d="M 628 4666 
L 1259 4666 
L 1259 0 
L 628 0 
L 628 4666 
z
" transform="scale(0.015625)"/>
     <path id="DejaVuSans-7c" d="M 1344 4891 
L 1344 -1509 
L 813 -1509 
L 813 4891 
L 1344 4891 
z
" transform="scale(0.015625)"/>
     <path id="DejaVuSans-46" d="M 628 4666 
L 3309 4666 
L 3309 4134 
L 1259 4134 
L 1259 2759 
L 3109 2759 
L 3109 2228 
L 1259 2228 
L 1259 0 
L 628 0 
L 628 4666 
z
" transform="scale(0.015625)"/>
    </defs>
    <use xlink:href="#DejaVuSans-53"/>
    <use xlink:href="#DejaVuSans-6f" transform="translate(63.476562 0)"/>
    <use xlink:href="#DejaVuSans-75" transform="translate(124.658203 0)"/>
    <use xlink:href="#DejaVuSans-72" transform="translate(188.037109 0)"/>
    <use xlink:href="#DejaVuSans-63" transform="translate(226.900391 0)"/>
    <use xlink:href="#DejaVuSans-65" transform="translate(281.880859 0)"/>
    <use xlink:href="#DejaVuSans-73" transform="translate(343.404297 0)"/>
    <use xlink:href="#DejaVuSans-3a" transform="translate(395.503906 0)"/>
    <use xlink:href="#DejaVuSans-20" transform="translate(429.195312 0)"/>
    <use xlink:href="#DejaVuSans-50" transform="translate(460.982422 0)"/>
    <use xlink:href="#DejaVuSans-6f" transform="translate(517.660156 0)"/>
    <use xlink:href="#DejaVuSans-6c" transform="translate(578.841797 0)"/>
    <use xlink:href="#DejaVuSans-79" transform="translate(606.625 0)"/>
    <use xlink:href="#DejaVuSans-6d" transform="translate(665.804688 0)"/>
    <use xlink:href="#DejaVuSans-61" transform="translate(763.216797 0)"/>
    <use xlink:href="#DejaVuSans-72" transform="translate(824.496094 0)"/>
    <use xlink:href="#DejaVuSans-6b" transform="translate(865.609375 0)"/>
    <use xlink:href="#DejaVuSans-65" transform="translate(919.894531 0)"/>
    <use xlink:href="#DejaVuSans-74" transform="translate(981.417969 0)"/>
    <use xlink:href="#DejaVuSans-20" transform="translate(1020.626953 0)"/>
    <use xlink:href="#DejaVuSans-43" transform="translate(1052.414062 0)"/>
    <use xlink:href="#DejaVuSans-4c" transform="translate(1122.238281 0)"/>
    <use xlink:href="#DejaVuSans-4f" transform="translate(1174.326172 0)"/>
    <use xlink:href="#DejaVuSans-42" transform="translate(1253.037109 0)"/>
    <use xlink:href="#DejaVuSans-20" transform="translate(1321.640625 0)"/>
    <use xlink:href="#DejaVuSans-41" transform="translate(1353.427734 0)"/>
    <use xlink:href="#DejaVuSans-50" transform="translate(1421.835938 0)"/>
    <use xlink:href="#DejaVuSans-49" transform="translate(1482.138672 0)"/>
    <use xlink:href="#DejaVuSans-20" transform="translate(1511.630859 0)"/>
    <use xlink:href="#DejaVuSans-7c" transform="translate(1543.417969 0)"/>
    <use xlink:href="#DejaVuSans-20" transform="translate(1577.109375 0)"/>
    <use xlink:href="#DejaVuSans-46" transform="translate(1608.896484 0)"/>
    <use xlink:href="#DejaVuSans-72" transform="translate(1659.166016 0)"/>
    <use xlink:href="#DejaVuSans-65" transform="translate(1698.029297 0)"/>
    <use xlink:href="#DejaVuSans-69" transform="translate(1759.552734 0)"/>
    <use xlink:href="#DejaVuSans-67" transform="translate(1787.335938 0)"/>
    <use xlink:href="#DejaVuSans-68" transform="translate(1850.8125 0)"/>
    <use xlink:href="#DejaVuSans-74" transform="translate(1914.191406 0)"/>
    <use xlink:href="#DejaVuSans-20" transform="translate(1953.400391 0)"/>
    <use xlink:href="#DejaVuSans-64" transform="translate(1985.1875 0)"/>
    <use xlink:href="#DejaVuSans-61" transform="translate(2048.664062 0)"/>
    <use xlink:href="#DejaVuSans-74" transform="translate(2109.943359 0)"/>
    <use xlink:href="#DejaVuSans-61" transform="translate(2149.152344 0)"/>
   </g>
  </g>
 </g>
 <defs>
  <clipPath id="p9bcd30f553">
   <rect x="55.557031" y="29.077969" width="791.89" height="281.120823"/>
  </clipPath>
 </defs>
</svg>
